<svg width="16" height="16" viewBox="0 0 16 16" fill="none" xmlns="http://www.w3.org/2000/svg">
<path d="M6.71967 7.23992C6.75301 7.01992 6.82634 6.82658 6.91967 6.65992C7.01301 6.49325 7.14634 6.35325 7.31301 6.24658C7.47301 6.14658 7.67301 6.09992 7.91967 6.09325C8.07301 6.09992 8.21301 6.12659 8.33967 6.17992C8.47301 6.23992 8.59301 6.31992 8.68634 6.41992C8.77967 6.51992 8.85301 6.63992 8.91301 6.77325C8.97301 6.90658 8.99967 7.05325 9.00634 7.19992H10.1997C10.1863 6.88659 10.1263 6.59992 10.013 6.33992C9.89967 6.07992 9.74634 5.85325 9.54634 5.66658C9.34634 5.47992 9.10634 5.33325 8.82634 5.22659C8.54634 5.11992 8.23967 5.07325 7.89967 5.07325C7.46634 5.07325 7.08634 5.14658 6.76634 5.29992C6.44634 5.45325 6.17967 5.65325 5.96634 5.91325C5.75301 6.17325 5.59301 6.47325 5.49301 6.81992C5.39301 7.16658 5.33301 7.52658 5.33301 7.91325V8.09325C5.33301 8.47992 5.38634 8.83992 5.48634 9.18658C5.58634 9.53325 5.74634 9.83325 5.95967 10.0866C6.17301 10.3399 6.43967 10.5466 6.75967 10.6933C7.07967 10.8399 7.45967 10.9199 7.89301 10.9199C8.20634 10.9199 8.49967 10.8666 8.77301 10.7666C9.04634 10.6666 9.28634 10.5266 9.49301 10.3466C9.69967 10.1666 9.86634 9.95992 9.98634 9.71992C10.1063 9.47992 10.1797 9.22658 10.1863 8.95325H8.99301C8.98634 9.09325 8.95301 9.21992 8.89301 9.33992C8.83301 9.45992 8.75301 9.55992 8.65301 9.64658C8.55301 9.73325 8.43967 9.79992 8.30634 9.84659C8.17967 9.89325 8.04634 9.90658 7.90634 9.91325C7.66634 9.90658 7.46634 9.85992 7.31301 9.75992C7.14634 9.65325 7.01301 9.51325 6.91967 9.34659C6.82634 9.17992 6.75301 8.97992 6.71967 8.75992C6.68634 8.53992 6.66634 8.31325 6.66634 8.09325V7.91325C6.66634 7.67992 6.68634 7.45992 6.71967 7.23992ZM7.99967 1.33325C4.31967 1.33325 1.33301 4.31992 1.33301 7.99992C1.33301 11.6799 4.31967 14.6666 7.99967 14.6666C11.6797 14.6666 14.6663 11.6799 14.6663 7.99992C14.6663 4.31992 11.6797 1.33325 7.99967 1.33325ZM7.99967 13.3333C5.05967 13.3333 2.66634 10.9399 2.66634 7.99992C2.66634 5.05992 5.05967 2.66659 7.99967 2.66659C10.9397 2.66659 13.333 5.05992 13.333 7.99992C13.333 10.9399 10.9397 13.3333 7.99967 13.3333Z" fill="#434157"/>
</svg>
