<svg width="46" height="46" viewBox="0 0 46 46" fill="none" xmlns="http://www.w3.org/2000/svg">
<rect width="46" height="46" rx="23" fill="#E6767A"/>
<path d="M31.1618 19.2881L21.1618 29.2882C21.0747 29.3756 20.9712 29.4449 20.8572 29.4922C20.7433 29.5395 20.6211 29.5639 20.4977 29.5639C20.3743 29.5639 20.2522 29.5395 20.1382 29.4922C20.0242 29.4449 19.9208 29.3756 19.8337 29.2882L15.4587 24.9132C15.3715 24.8259 15.3023 24.7224 15.2551 24.6085C15.2079 24.4945 15.1836 24.3724 15.1836 24.2491C15.1836 24.1258 15.2079 24.0036 15.2551 23.8897C15.3023 23.7758 15.3715 23.6722 15.4587 23.585C15.5459 23.4978 15.6494 23.4286 15.7633 23.3814C15.8773 23.3343 15.9994 23.31 16.1227 23.31C16.246 23.31 16.3682 23.3343 16.4821 23.3814C16.596 23.4286 16.6996 23.4978 16.7868 23.585L20.4985 27.2967L29.8352 17.9616C30.0113 17.7855 30.2502 17.6865 30.4993 17.6865C30.7484 17.6865 30.9872 17.7855 31.1633 17.9616C31.3395 18.1377 31.4384 18.3766 31.4384 18.6256C31.4384 18.8747 31.3395 19.1136 31.1633 19.2897L31.1618 19.2881Z" fill="white"/>
</svg>
