<svg width="11" height="10" viewBox="0 0 11 10" fill="none" xmlns="http://www.w3.org/2000/svg">
<path d="M4.6213 4.47783C4.64422 4.32658 4.69464 4.19366 4.7588 4.07908C4.82297 3.96449 4.91464 3.86824 5.02922 3.79491C5.13922 3.72616 5.27672 3.69408 5.4463 3.68949C5.55172 3.69408 5.64797 3.71241 5.73505 3.74908C5.82672 3.79033 5.90922 3.84533 5.97339 3.91408C6.03755 3.98283 6.08797 4.06533 6.12922 4.15699C6.17047 4.24866 6.1888 4.34949 6.19339 4.45033H7.0138C7.00464 4.23491 6.96339 4.03783 6.88547 3.85908C6.80755 3.68033 6.70214 3.52449 6.56464 3.39616C6.42714 3.26783 6.26214 3.16699 6.06964 3.09366C5.87714 3.02033 5.6663 2.98824 5.43255 2.98824C5.13464 2.98824 4.87339 3.03866 4.65339 3.14408C4.43339 3.24949 4.25005 3.38699 4.10339 3.56574C3.95672 3.74449 3.84672 3.95074 3.77797 4.18908C3.70922 4.42741 3.66797 4.67491 3.66797 4.94074V5.06449C3.66797 5.33033 3.70464 5.57783 3.77339 5.81616C3.84214 6.05449 3.95214 6.26074 4.0988 6.43491C4.24547 6.60908 4.4288 6.75116 4.6488 6.85199C4.8688 6.95283 5.13005 7.00783 5.42797 7.00783C5.64339 7.00783 5.84505 6.97116 6.03297 6.90241C6.22089 6.83366 6.38589 6.73741 6.52797 6.61366C6.67005 6.48991 6.78464 6.34783 6.86714 6.18283C6.94964 6.01783 7.00005 5.84366 7.00464 5.65574H6.18422C6.17964 5.75199 6.15672 5.83908 6.11547 5.92158C6.07422 6.00408 6.01922 6.07283 5.95047 6.13241C5.88172 6.19199 5.8038 6.23783 5.71214 6.26991C5.62505 6.30199 5.53339 6.31116 5.43714 6.31574C5.27214 6.31116 5.13464 6.27908 5.02922 6.21033C4.91464 6.13699 4.82297 6.04074 4.7588 5.92616C4.69464 5.81158 4.64422 5.67408 4.6213 5.52283C4.59839 5.37158 4.58464 5.21574 4.58464 5.06449V4.94074C4.58464 4.78033 4.59839 4.62908 4.6213 4.47783ZM5.5013 0.416992C2.9713 0.416992 0.917969 2.47033 0.917969 5.00033C0.917969 7.53033 2.9713 9.58366 5.5013 9.58366C8.0313 9.58366 10.0846 7.53033 10.0846 5.00033C10.0846 2.47033 8.0313 0.416992 5.5013 0.416992ZM5.5013 8.66699C3.48005 8.66699 1.83464 7.02158 1.83464 5.00033C1.83464 2.97908 3.48005 1.33366 5.5013 1.33366C7.52255 1.33366 9.16797 2.97908 9.16797 5.00033C9.16797 7.02158 7.52255 8.66699 5.5013 8.66699Z" fill="white"/>
</svg>
