<svg width="62" height="62" viewBox="0 0 62 62" fill="none" xmlns="http://www.w3.org/2000/svg">
<g clip-path="url(#clip0_1501_10661)">
<path fill-rule="evenodd" clip-rule="evenodd" d="M12.8011 29.1482L24.3661 37.1553L19.4611 42.0736C19.3273 42.2017 19.2203 42.3552 19.1465 42.525C19.0726 42.6949 19.0334 42.8778 19.0311 43.063C19.0287 43.2482 19.0633 43.432 19.1328 43.6037C19.2023 43.7754 19.3053 43.9316 19.4358 44.0631C19.5663 44.1945 19.7217 44.2987 19.8929 44.3695C20.0642 44.4402 20.2478 44.4762 20.4331 44.4752C20.6184 44.4743 20.8016 44.4365 20.9721 44.3639C21.1426 44.2914 21.2969 44.1857 21.4261 44.0529L26.7061 38.7748L30.2011 41.2039C30.4346 41.3658 30.7119 41.4525 30.9961 41.4525C31.2802 41.4525 31.5576 41.3658 31.7911 41.2039L35.2861 38.7748L40.5511 44.0529C40.6811 44.1828 40.8354 44.2859 41.0053 44.3563C41.1752 44.4266 41.3572 44.4628 41.5411 44.4628C41.725 44.4628 41.907 44.4266 42.0769 44.3563C42.2467 44.2859 42.4011 44.1828 42.5311 44.0529C42.6611 43.9229 42.7642 43.7686 42.8346 43.5988C42.905 43.429 42.9412 43.247 42.9412 43.0632C42.9412 42.8794 42.905 42.6974 42.8346 42.5276C42.7642 42.3578 42.6611 42.2035 42.5311 42.0736L37.6261 37.1553L49.1911 29.1482V44.5627C49.1951 45.171 49.0784 45.7741 48.8478 46.337C48.6172 46.9 48.2773 47.4117 47.8477 47.8425C47.4181 48.2733 46.9073 48.6148 46.3449 48.8471C45.7825 49.0794 45.1796 49.198 44.5711 49.196H17.4961C16.8876 49.198 16.2847 49.0794 15.7223 48.8471C15.1599 48.6148 14.6491 48.2733 14.2195 47.8425C13.7899 47.4117 13.45 46.9 13.2194 46.337C12.9888 45.7741 12.8721 45.171 12.8761 44.5627L12.8011 29.1482ZM23.4961 25.0847C23.1491 25.1206 22.8278 25.2838 22.5942 25.5427C22.3606 25.8017 22.2313 26.138 22.2313 26.4867C22.2313 26.8353 22.3606 27.1716 22.5942 27.4306C22.8278 27.6895 23.1491 27.8527 23.4961 27.8887H38.4961C38.6925 27.909 38.8909 27.8879 39.0786 27.8267C39.2663 27.7655 39.439 27.6656 39.5856 27.5334C39.7322 27.4012 39.8494 27.2398 39.9296 27.0595C40.0099 26.8791 40.0513 26.684 40.0513 26.4867C40.0513 26.2893 40.0099 26.0942 39.9296 25.9139C39.8494 25.7335 39.7322 25.5721 39.5856 25.4399C39.439 25.3078 39.2663 25.2078 39.0786 25.1466C38.8909 25.0854 38.6925 25.0643 38.4961 25.0847H23.4961ZM44.4961 24.4399L48.0361 26.5691L44.4961 29.0282V24.4399ZM17.4961 24.4399V28.9383L13.9861 26.5691L17.4961 24.4399ZM23.3161 17.4974C22.9382 17.5212 22.5852 17.6942 22.3348 17.9782C22.0845 18.2622 21.9572 18.634 21.9811 19.0118C22.005 19.3896 22.178 19.7425 22.4621 19.9927C22.7462 20.243 23.1182 20.3702 23.4961 20.3463H30.9961C31.374 20.3463 31.7365 20.1963 32.0037 19.9291C32.271 19.662 32.4211 19.2997 32.4211 18.9219C32.4211 18.5441 32.271 18.1817 32.0037 17.9146C31.7365 17.6474 31.374 17.4974 30.9961 17.4974H23.3161ZM36.9061 15.2332L40.0711 18.9968H36.9061V15.2332ZM21.9961 12.804H34.1611V20.4963C34.1611 20.8701 34.3096 21.2286 34.5741 21.493C34.8385 21.7573 35.1971 21.9058 35.5711 21.9058H41.7061V30.9925L30.9961 38.3399L20.3311 30.9925V14.4984C20.33 14.2859 20.372 14.0754 20.4545 13.8796C20.537 13.6837 20.6583 13.5066 20.8111 13.3588C20.9539 13.1829 21.1346 13.0416 21.3399 12.9455C21.5451 12.8494 21.7695 12.801 21.9961 12.804V12.804ZM35.4961 10H21.9961C20.8026 10 19.658 10.474 18.8141 11.3176C17.9702 12.1612 17.4961 13.3054 17.4961 14.4984V21.246L10.7611 25.2946C10.5386 25.4087 10.3505 25.58 10.2161 25.7908C10.0817 26.0016 10.0057 26.2443 9.99609 26.4942V44.5627C10.0159 46.5381 10.8147 48.4259 12.2191 49.8157C13.6235 51.2056 15.5199 51.9851 17.4961 51.985H44.6461C46.5962 51.9461 48.4544 51.1493 49.8266 49.7636C51.1988 48.378 51.977 46.5124 51.9961 44.5627V26.4942C51.9946 26.2252 51.9161 25.9622 51.7699 25.7364C51.6237 25.5105 51.4159 25.3312 51.1711 25.2196L44.4961 21.1711V20.8562C44.5539 20.6297 44.5525 20.3921 44.4921 20.1663C44.4317 19.9405 44.3143 19.734 44.1511 19.5666L36.6511 10.5698C36.5213 10.3862 36.3477 10.2379 36.146 10.1384C35.9442 10.0389 35.7209 9.99131 35.4961 10Z" fill="#3E214F"/>
</g>
<defs>
<clipPath id="clip0_1501_10661">
<rect width="42" height="42" fill="white" transform="translate(9.99609 10)"/>
</clipPath>
</defs>
</svg>
