<svg width="22" height="22" viewBox="0 0 22 22" fill="none" xmlns="http://www.w3.org/2000/svg">
<path d="M13.75 11C13.75 11.5439 13.5887 12.0756 13.2865 12.5278C12.9844 12.9801 12.5549 13.3325 12.0524 13.5407C11.5499 13.7488 10.9969 13.8033 10.4635 13.6972C9.93005 13.5911 9.44005 13.3291 9.05546 12.9445C8.67086 12.5599 8.40895 12.0699 8.30284 11.5365C8.19673 11.0031 8.25119 10.4501 8.45933 9.94762C8.66747 9.44512 9.01995 9.01563 9.47218 8.71346C9.92442 8.41128 10.4561 8.25 11 8.25C11.7286 8.25227 12.4268 8.54273 12.942 9.05796C13.4573 9.57319 13.7477 10.2714 13.75 11ZM19.5938 7.21875V14.7812C19.5938 16.0576 19.0867 17.2817 18.1842 18.1842C17.2817 19.0867 16.0576 19.5938 14.7812 19.5938H7.21875C5.9424 19.5938 4.71832 19.0867 3.8158 18.1842C2.91328 17.2817 2.40625 16.0576 2.40625 14.7812V7.21875C2.40625 5.9424 2.91328 4.71832 3.8158 3.8158C4.71832 2.91328 5.9424 2.40625 7.21875 2.40625H14.7812C16.0576 2.40625 17.2817 2.91328 18.1842 3.8158C19.0867 4.71832 19.5938 5.9424 19.5938 7.21875ZM15.125 11C15.125 10.1842 14.8831 9.38663 14.4298 8.70827C13.9766 8.02992 13.3323 7.50121 12.5786 7.189C11.8248 6.87679 10.9954 6.7951 10.1953 6.95426C9.39508 7.11343 8.66008 7.50629 8.08318 8.08318C7.50629 8.66008 7.11343 9.39508 6.95426 10.1953C6.7951 10.9954 6.87679 11.8248 7.189 12.5786C7.50121 13.3323 8.02992 13.9766 8.70827 14.4298C9.38663 14.8831 10.1842 15.125 11 15.125C12.094 15.125 13.1432 14.6904 13.9168 13.9168C14.6904 13.1432 15.125 12.094 15.125 11ZM16.5 6.53125C16.5 6.32729 16.4395 6.12791 16.3262 5.95832C16.2129 5.78873 16.0518 5.65655 15.8634 5.5785C15.675 5.50045 15.4676 5.48002 15.2676 5.51981C15.0675 5.55961 14.8838 5.65782 14.7395 5.80205C14.5953 5.94627 14.4971 6.13002 14.4573 6.33006C14.4175 6.53011 14.4379 6.73746 14.516 6.92589C14.5941 7.11433 14.7262 7.27539 14.8958 7.3887C15.0654 7.50202 15.2648 7.5625 15.4688 7.5625C15.7423 7.5625 16.0046 7.45385 16.198 7.26045C16.3913 7.06706 16.5 6.80475 16.5 6.53125Z" fill="white"/>
</svg>
