<svg width="558" height="415" viewBox="0 0 558 415" fill="none" xmlns="http://www.w3.org/2000/svg">
<g clip-path="url(#clip0_504_1746)">
<rect width="558" height="415" rx="14" fill="#D4C9FF"/>
<g filter="url(#filter0_d_504_1746)">
<path fill-rule="evenodd" clip-rule="evenodd" d="M454.45 358.382H455.3C456.239 358.382 457 359.144 457 360.084V446.867C457 447.807 456.239 448.569 455.3 448.569H454.45V358.382Z" fill="#121515"/>
<path fill-rule="evenodd" clip-rule="evenodd" d="M454.45 257.135H455.3C456.239 257.135 457 257.897 457 258.837V301.378C457 302.317 456.239 303.079 455.3 303.079H454.45V257.135Z" fill="#FB7E5C"/>
<g filter="url(#filter1_dd_504_1746)">
<path fill-rule="evenodd" clip-rule="evenodd" d="M100 102.287C100 81.1415 117.125 64 138.25 64H416.2C437.325 64 454.45 81.1415 454.45 102.287V755.713C454.45 776.858 437.325 794 416.2 794H138.25C117.125 794 100 776.858 100 755.713V102.287Z" fill="#3A4245"/>
</g>
<path fill-rule="evenodd" clip-rule="evenodd" d="M104.25 102.287C104.25 83.491 119.472 68.2541 138.25 68.2541H416.2C434.978 68.2541 450.2 83.491 450.2 102.287V755.713C450.2 774.509 434.978 789.746 416.2 789.746H138.25C119.472 789.746 104.25 774.509 104.25 755.713V102.287Z" fill="#121515"/>
<path fill-rule="evenodd" clip-rule="evenodd" d="M210.5 83.1434C210.5 81.0289 212.214 79.3147 214.329 79.3147H340.121C342.236 79.3147 343.95 81.0289 343.95 83.1434C343.95 85.2579 342.236 86.972 340.121 86.972H214.329C212.214 86.972 210.5 85.2579 210.5 83.1434Z" fill="#262C2D"/>
<path fill-rule="evenodd" clip-rule="evenodd" d="M151.851 103.988C155.606 103.988 158.651 100.941 158.651 97.1818C158.651 93.4227 155.606 90.3753 151.851 90.3753C148.095 90.3753 145.051 93.4227 145.051 97.1818C145.051 100.941 148.095 103.988 151.851 103.988Z" fill="#262C2D"/>
<path fill-rule="evenodd" clip-rule="evenodd" d="M151.851 101.436C154.198 101.436 156.101 99.5313 156.101 97.1818C156.101 94.8324 154.198 92.9277 151.851 92.9277C149.503 92.9277 147.601 94.8324 147.601 97.1818C147.601 99.5313 149.503 101.436 151.851 101.436Z" fill="#121515"/>
<path opacity="0.4" fill-rule="evenodd" clip-rule="evenodd" d="M151.85 96.331C152.319 96.331 152.7 95.9501 152.7 95.4802C152.7 95.0103 152.319 94.6294 151.85 94.6294C151.381 94.6294 151 95.0103 151 95.4802C151 95.9501 151.381 96.331 151.85 96.331Z" fill="#636F73"/>
<mask id="mask0_504_1746" style="mask-type:alpha" maskUnits="userSpaceOnUse" x="117" y="110" width="320" height="639">
<path d="M117.851 133.767C117.851 121.08 128.126 110.795 140.801 110.795H413.651C426.326 110.795 436.601 121.08 436.601 133.767V725.935C436.601 738.622 426.326 748.907 413.651 748.907H140.801C128.126 748.907 117.851 738.622 117.851 725.935V133.767Z" fill="white"/>
</mask>
<g mask="url(#mask0_504_1746)">
</g>
<rect width="318.75" height="638.112" transform="translate(117.851 110.795)" fill="white"/>
<rect x="246.463" y="204.486" width="61.325" height="61.325" rx="30.6625" fill="#FF4D4F"/>
<path d="M269.97 244.092L268.182 242.303L275.336 235.148L268.182 227.994L269.97 226.205L277.125 233.36L284.279 226.205L286.068 227.994L278.914 235.148L286.068 242.303L284.279 244.092L277.125 236.937L269.97 244.092Z" fill="white"/>
<path d="M172.376 302.846V296.55L167.597 288.886H170.09L173.912 295.088H173.032L176.835 288.886H179.328L174.568 296.55V302.846H172.376ZM183.894 303.07C182.92 303.07 182.027 302.839 181.215 302.377C180.415 301.915 179.778 301.284 179.303 300.485C178.829 299.685 178.591 298.779 178.591 297.768C178.591 296.743 178.829 295.837 179.303 295.05C179.778 294.251 180.415 293.626 181.215 293.177C182.014 292.714 182.907 292.483 183.894 292.483C184.894 292.483 185.787 292.714 186.574 293.177C187.373 293.626 188.004 294.251 188.466 295.05C188.941 295.837 189.178 296.743 189.178 297.768C189.178 298.792 188.941 299.704 188.466 300.503C187.992 301.303 187.355 301.934 186.555 302.396C185.756 302.846 184.869 303.07 183.894 303.07ZM183.894 301.103C184.494 301.103 185.025 300.959 185.487 300.672C185.949 300.385 186.311 299.991 186.574 299.491C186.849 298.979 186.986 298.405 186.986 297.768C186.986 297.13 186.849 296.562 186.574 296.062C186.311 295.563 185.949 295.169 185.487 294.882C185.025 294.595 184.494 294.451 183.894 294.451C183.307 294.451 182.776 294.595 182.302 294.882C181.839 295.169 181.471 295.563 181.196 296.062C180.934 296.562 180.802 297.13 180.802 297.768C180.802 298.405 180.934 298.979 181.196 299.491C181.471 299.991 181.839 300.385 182.302 300.672C182.776 300.959 183.307 301.103 183.894 301.103ZM194.862 303.07C194.1 303.07 193.432 302.902 192.857 302.565C192.282 302.215 191.833 301.734 191.508 301.122C191.196 300.497 191.04 299.779 191.04 298.967V292.708H193.157V298.779C193.157 299.242 193.251 299.648 193.438 299.997C193.625 300.347 193.888 300.622 194.225 300.822C194.562 301.009 194.95 301.103 195.387 301.103C195.836 301.103 196.23 301.003 196.567 300.803C196.905 300.603 197.167 300.322 197.354 299.96C197.554 299.598 197.654 299.173 197.654 298.686V292.708H199.753V302.846H197.748V300.859L197.973 301.122C197.735 301.746 197.342 302.227 196.792 302.565C196.242 302.902 195.599 303.07 194.862 303.07ZM202.225 302.846V292.708H204.249V294.751L204.061 294.451C204.286 293.789 204.649 293.314 205.148 293.027C205.648 292.727 206.247 292.577 206.947 292.577H207.565V294.507H206.685C205.985 294.507 205.417 294.726 204.98 295.163C204.555 295.588 204.342 296.2 204.342 296.999V302.846H202.225ZM216.674 302.958C215.612 302.958 214.788 302.658 214.201 302.059C213.614 301.459 213.32 300.616 213.32 299.529V294.62H211.54V292.708H211.821C212.296 292.708 212.664 292.571 212.927 292.296C213.189 292.021 213.32 291.646 213.32 291.172V290.385H215.438V292.708H217.742V294.62H215.438V299.435C215.438 299.785 215.494 300.085 215.606 300.335C215.719 300.572 215.9 300.759 216.15 300.897C216.399 301.022 216.724 301.084 217.124 301.084C217.224 301.084 217.336 301.078 217.461 301.065C217.586 301.053 217.705 301.04 217.817 301.028V302.846C217.642 302.871 217.449 302.896 217.236 302.921C217.024 302.946 216.837 302.958 216.674 302.958ZM219.884 302.846V292.708H221.907V294.751L221.72 294.451C221.945 293.789 222.307 293.314 222.807 293.027C223.306 292.727 223.906 292.577 224.606 292.577H225.224V294.507H224.343C223.644 294.507 223.075 294.726 222.638 295.163C222.213 295.588 222.001 296.2 222.001 296.999V302.846H219.884ZM229.708 303.07C229.021 303.07 228.415 302.952 227.89 302.714C227.378 302.465 226.979 302.127 226.691 301.703C226.404 301.265 226.26 300.753 226.26 300.166C226.26 299.616 226.379 299.123 226.616 298.686C226.866 298.248 227.247 297.88 227.759 297.58C228.272 297.28 228.915 297.068 229.689 296.943L233.212 296.362V298.03L230.102 298.573C229.539 298.673 229.127 298.854 228.865 299.117C228.603 299.367 228.471 299.691 228.471 300.091C228.471 300.478 228.615 300.797 228.902 301.047C229.202 301.284 229.583 301.403 230.045 301.403C230.62 301.403 231.12 301.278 231.544 301.028C231.982 300.778 232.319 300.447 232.556 300.035C232.794 299.61 232.912 299.142 232.912 298.629V296.025C232.912 295.525 232.725 295.119 232.35 294.807C231.988 294.482 231.501 294.32 230.889 294.32C230.326 294.32 229.833 294.47 229.408 294.769C228.996 295.057 228.69 295.432 228.49 295.894L226.729 295.013C226.916 294.513 227.222 294.076 227.647 293.701C228.072 293.314 228.565 293.014 229.127 292.802C229.702 292.59 230.308 292.483 230.945 292.483C231.744 292.483 232.45 292.633 233.062 292.933C233.687 293.233 234.168 293.651 234.505 294.189C234.855 294.713 235.03 295.325 235.03 296.025V302.846H233.006V301.009L233.437 301.065C233.2 301.478 232.894 301.834 232.519 302.134C232.157 302.433 231.738 302.664 231.263 302.827C230.801 302.989 230.283 303.07 229.708 303.07ZM237.506 302.846V292.708H239.529V294.694L239.286 294.432C239.535 293.795 239.935 293.314 240.485 292.989C241.035 292.652 241.672 292.483 242.396 292.483C243.146 292.483 243.808 292.646 244.382 292.971C244.957 293.295 245.407 293.745 245.732 294.32C246.056 294.894 246.219 295.556 246.219 296.306V302.846H244.12V296.868C244.12 296.356 244.026 295.925 243.839 295.575C243.652 295.213 243.383 294.938 243.033 294.751C242.696 294.551 242.309 294.451 241.872 294.451C241.434 294.451 241.041 294.551 240.691 294.751C240.354 294.938 240.091 295.213 239.904 295.575C239.717 295.937 239.623 296.368 239.623 296.868V302.846H237.506ZM252.233 303.07C251.196 303.07 250.284 302.814 249.497 302.302C248.722 301.79 248.179 301.103 247.867 300.241L249.497 299.473C249.772 300.047 250.146 300.503 250.621 300.841C251.108 301.178 251.645 301.347 252.233 301.347C252.732 301.347 253.138 301.234 253.451 301.009C253.763 300.784 253.919 300.478 253.919 300.091C253.919 299.841 253.85 299.641 253.713 299.491C253.575 299.329 253.401 299.198 253.188 299.098C252.988 298.998 252.782 298.923 252.57 298.873L250.977 298.423C250.103 298.174 249.447 297.799 249.01 297.299C248.585 296.787 248.373 296.194 248.373 295.519C248.373 294.907 248.529 294.376 248.841 293.926C249.153 293.464 249.584 293.108 250.134 292.858C250.684 292.608 251.302 292.483 251.989 292.483C252.913 292.483 253.738 292.714 254.462 293.177C255.187 293.626 255.699 294.257 255.999 295.069L254.369 295.837C254.169 295.35 253.85 294.963 253.413 294.676C252.988 294.388 252.507 294.245 251.97 294.245C251.508 294.245 251.14 294.357 250.865 294.582C250.59 294.794 250.452 295.075 250.452 295.425C250.452 295.663 250.515 295.862 250.64 296.025C250.765 296.175 250.927 296.3 251.127 296.4C251.327 296.487 251.533 296.562 251.745 296.625L253.394 297.112C254.231 297.349 254.875 297.724 255.324 298.236C255.774 298.736 255.999 299.335 255.999 300.035C255.999 300.634 255.837 301.165 255.512 301.628C255.199 302.077 254.762 302.433 254.2 302.696C253.638 302.946 252.982 303.07 252.233 303.07ZM261.109 303.07C260.422 303.07 259.816 302.952 259.292 302.714C258.779 302.465 258.38 302.127 258.092 301.703C257.805 301.265 257.661 300.753 257.661 300.166C257.661 299.616 257.78 299.123 258.017 298.686C258.267 298.248 258.648 297.88 259.16 297.58C259.673 297.28 260.316 297.068 261.09 296.943L264.613 296.362V298.03L261.503 298.573C260.941 298.673 260.528 298.854 260.266 299.117C260.004 299.367 259.872 299.691 259.872 300.091C259.872 300.478 260.016 300.797 260.303 301.047C260.603 301.284 260.984 301.403 261.446 301.403C262.021 301.403 262.521 301.278 262.946 301.028C263.383 300.778 263.72 300.447 263.957 300.035C264.195 299.61 264.313 299.142 264.313 298.629V296.025C264.313 295.525 264.126 295.119 263.751 294.807C263.389 294.482 262.902 294.32 262.29 294.32C261.728 294.32 261.234 294.47 260.809 294.769C260.397 295.057 260.091 295.432 259.891 295.894L258.13 295.013C258.317 294.513 258.623 294.076 259.048 293.701C259.473 293.314 259.966 293.014 260.528 292.802C261.103 292.59 261.709 292.483 262.346 292.483C263.145 292.483 263.851 292.633 264.463 292.933C265.088 293.233 265.569 293.651 265.906 294.189C266.256 294.713 266.431 295.325 266.431 296.025V302.846H264.407V301.009L264.838 301.065C264.601 301.478 264.295 301.834 263.92 302.134C263.558 302.433 263.139 302.664 262.664 302.827C262.202 302.989 261.684 303.07 261.109 303.07ZM273.722 303.07C272.71 303.07 271.811 302.839 271.024 302.377C270.25 301.902 269.631 301.265 269.169 300.466C268.719 299.666 268.494 298.761 268.494 297.749C268.494 296.749 268.719 295.85 269.169 295.05C269.619 294.251 270.237 293.626 271.024 293.177C271.811 292.714 272.71 292.483 273.722 292.483C274.409 292.483 275.053 292.608 275.652 292.858C276.252 293.095 276.77 293.427 277.208 293.851C277.657 294.276 277.988 294.769 278.201 295.332L276.346 296.194C276.133 295.669 275.79 295.25 275.315 294.938C274.853 294.613 274.322 294.451 273.722 294.451C273.148 294.451 272.629 294.595 272.167 294.882C271.717 295.157 271.361 295.55 271.099 296.062C270.837 296.562 270.706 297.13 270.706 297.768C270.706 298.405 270.837 298.979 271.099 299.491C271.361 299.991 271.717 300.385 272.167 300.672C272.629 300.959 273.148 301.103 273.722 301.103C274.334 301.103 274.865 300.947 275.315 300.634C275.777 300.31 276.121 299.879 276.346 299.342L278.201 300.222C278.001 300.759 277.676 301.247 277.226 301.684C276.789 302.109 276.271 302.446 275.671 302.696C275.071 302.946 274.422 303.07 273.722 303.07ZM284.655 302.958C283.593 302.958 282.769 302.658 282.182 302.059C281.594 301.459 281.301 300.616 281.301 299.529V294.62H279.521V292.708H279.802C280.277 292.708 280.645 292.571 280.907 292.296C281.17 292.021 281.301 291.646 281.301 291.172V290.385H283.418V292.708H285.723V294.62H283.418V299.435C283.418 299.785 283.475 300.085 283.587 300.335C283.699 300.572 283.881 300.759 284.13 300.897C284.38 301.022 284.705 301.084 285.105 301.084C285.205 301.084 285.317 301.078 285.442 301.065C285.567 301.053 285.686 301.04 285.798 301.028V302.846C285.623 302.871 285.43 302.896 285.217 302.921C285.005 302.946 284.817 302.958 284.655 302.958ZM287.864 302.846V292.708H289.982V302.846H287.864ZM287.864 291.322V288.886H289.982V291.322H287.864ZM297.348 303.07C296.374 303.07 295.481 302.839 294.669 302.377C293.869 301.915 293.232 301.284 292.757 300.485C292.283 299.685 292.045 298.779 292.045 297.768C292.045 296.743 292.283 295.837 292.757 295.05C293.232 294.251 293.869 293.626 294.669 293.177C295.468 292.714 296.361 292.483 297.348 292.483C298.347 292.483 299.241 292.714 300.028 293.177C300.827 293.626 301.458 294.251 301.92 295.05C302.395 295.837 302.632 296.743 302.632 297.768C302.632 298.792 302.395 299.704 301.92 300.503C301.446 301.303 300.808 301.934 300.009 302.396C299.209 302.846 298.323 303.07 297.348 303.07ZM297.348 301.103C297.948 301.103 298.479 300.959 298.941 300.672C299.403 300.385 299.765 299.991 300.028 299.491C300.303 298.979 300.44 298.405 300.44 297.768C300.44 297.13 300.303 296.562 300.028 296.062C299.765 295.563 299.403 295.169 298.941 294.882C298.479 294.595 297.948 294.451 297.348 294.451C296.761 294.451 296.23 294.595 295.755 294.882C295.293 295.169 294.925 295.563 294.65 296.062C294.387 296.562 294.256 297.13 294.256 297.768C294.256 298.405 294.387 298.979 294.65 299.491C294.925 299.991 295.293 300.385 295.755 300.672C296.23 300.959 296.761 301.103 297.348 301.103ZM304.699 302.846V292.708H306.723V294.694L306.48 294.432C306.729 293.795 307.129 293.314 307.679 292.989C308.229 292.652 308.866 292.483 309.59 292.483C310.34 292.483 311.002 292.646 311.576 292.971C312.151 293.295 312.601 293.745 312.926 294.32C313.25 294.894 313.413 295.556 313.413 296.306V302.846H311.314V296.868C311.314 296.356 311.22 295.925 311.033 295.575C310.846 295.213 310.577 294.938 310.227 294.751C309.89 294.551 309.503 294.451 309.065 294.451C308.628 294.451 308.235 294.551 307.885 294.751C307.548 294.938 307.285 295.213 307.098 295.575C306.911 295.937 306.817 296.368 306.817 296.868V302.846H304.699ZM321.409 302.846L317.924 292.708H320.172L322.833 300.784H322.046L324.763 292.708H326.693L329.392 300.784H328.605L331.284 292.708H333.533L330.029 302.846H328.117L325.382 294.582H326.075L323.339 302.846H321.409ZM337.654 303.07C336.967 303.07 336.361 302.952 335.836 302.714C335.324 302.465 334.924 302.127 334.637 301.703C334.35 301.265 334.206 300.753 334.206 300.166C334.206 299.616 334.325 299.123 334.562 298.686C334.812 298.248 335.193 297.88 335.705 297.58C336.217 297.28 336.861 297.068 337.635 296.943L341.158 296.362V298.03L338.047 298.573C337.485 298.673 337.073 298.854 336.811 299.117C336.548 299.367 336.417 299.691 336.417 300.091C336.417 300.478 336.561 300.797 336.848 301.047C337.148 301.284 337.529 301.403 337.991 301.403C338.566 301.403 339.066 301.278 339.49 301.028C339.928 300.778 340.265 300.447 340.502 300.035C340.74 299.61 340.858 299.142 340.858 298.629V296.025C340.858 295.525 340.671 295.119 340.296 294.807C339.934 294.482 339.447 294.32 338.834 294.32C338.272 294.32 337.779 294.47 337.354 294.769C336.942 295.057 336.636 295.432 336.436 295.894L334.675 295.013C334.862 294.513 335.168 294.076 335.593 293.701C336.018 293.314 336.511 293.014 337.073 292.802C337.648 292.59 338.254 292.483 338.891 292.483C339.69 292.483 340.396 292.633 341.008 292.933C341.633 293.233 342.114 293.651 342.451 294.189C342.801 294.713 342.976 295.325 342.976 296.025V302.846H340.952V301.009L341.383 301.065C341.146 301.478 340.839 301.834 340.465 302.134C340.102 302.433 339.684 302.664 339.209 302.827C338.747 302.989 338.229 303.07 337.654 303.07ZM349.199 303.07C348.162 303.07 347.25 302.814 346.463 302.302C345.689 301.79 345.145 301.103 344.833 300.241L346.463 299.473C346.738 300.047 347.113 300.503 347.588 300.841C348.075 301.178 348.612 301.347 349.199 301.347C349.699 301.347 350.105 301.234 350.417 301.009C350.729 300.784 350.885 300.478 350.885 300.091C350.885 299.841 350.817 299.641 350.679 299.491C350.542 299.329 350.367 299.198 350.155 299.098C349.955 298.998 349.749 298.923 349.536 298.873L347.944 298.423C347.069 298.174 346.413 297.799 345.976 297.299C345.551 296.787 345.339 296.194 345.339 295.519C345.339 294.907 345.495 294.376 345.807 293.926C346.12 293.464 346.551 293.108 347.1 292.858C347.65 292.608 348.268 292.483 348.955 292.483C349.88 292.483 350.704 292.714 351.429 293.177C352.153 293.626 352.666 294.257 352.965 295.069L351.335 295.837C351.135 295.35 350.817 294.963 350.38 294.676C349.955 294.388 349.474 294.245 348.937 294.245C348.475 294.245 348.106 294.357 347.831 294.582C347.556 294.794 347.419 295.075 347.419 295.425C347.419 295.663 347.481 295.862 347.606 296.025C347.731 296.175 347.894 296.3 348.093 296.4C348.293 296.487 348.499 296.562 348.712 296.625L350.361 297.112C351.198 297.349 351.841 297.724 352.291 298.236C352.741 298.736 352.965 299.335 352.965 300.035C352.965 300.634 352.803 301.165 352.478 301.628C352.166 302.077 351.729 302.433 351.167 302.696C350.604 302.946 349.949 303.07 349.199 303.07ZM358.316 302.846V292.708H360.339V294.694L360.096 294.432C360.346 293.795 360.745 293.314 361.295 292.989C361.845 292.652 362.482 292.483 363.206 292.483C363.956 292.483 364.618 292.646 365.193 292.971C365.767 293.295 366.217 293.745 366.542 294.32C366.866 294.894 367.029 295.556 367.029 296.306V302.846H364.93V296.868C364.93 296.356 364.836 295.925 364.649 295.575C364.462 295.213 364.193 294.938 363.843 294.751C363.506 294.551 363.119 294.451 362.682 294.451C362.244 294.451 361.851 294.551 361.501 294.751C361.164 294.938 360.901 295.213 360.714 295.575C360.527 295.937 360.433 296.368 360.433 296.868V302.846H358.316ZM374.186 303.07C373.211 303.07 372.318 302.839 371.506 302.377C370.707 301.915 370.07 301.284 369.595 300.485C369.12 299.685 368.883 298.779 368.883 297.768C368.883 296.743 369.12 295.837 369.595 295.05C370.07 294.251 370.707 293.626 371.506 293.177C372.306 292.714 373.199 292.483 374.186 292.483C375.185 292.483 376.078 292.714 376.865 293.177C377.665 293.626 378.296 294.251 378.758 295.05C379.232 295.837 379.47 296.743 379.47 297.768C379.47 298.792 379.232 299.704 378.758 300.503C378.283 301.303 377.646 301.934 376.846 302.396C376.047 302.846 375.16 303.07 374.186 303.07ZM374.186 301.103C374.785 301.103 375.316 300.959 375.778 300.672C376.241 300.385 376.603 299.991 376.865 299.491C377.14 298.979 377.277 298.405 377.277 297.768C377.277 297.13 377.14 296.562 376.865 296.062C376.603 295.563 376.241 295.169 375.778 294.882C375.316 294.595 374.785 294.451 374.186 294.451C373.599 294.451 373.068 294.595 372.593 294.882C372.131 295.169 371.762 295.563 371.487 296.062C371.225 296.562 371.094 297.13 371.094 297.768C371.094 298.405 371.225 298.979 371.487 299.491C371.762 299.991 372.131 300.385 372.593 300.672C373.068 300.959 373.599 301.103 374.186 301.103ZM385.739 302.958C384.677 302.958 383.852 302.658 383.265 302.059C382.678 301.459 382.385 300.616 382.385 299.529V294.62H380.605V292.708H380.886C381.36 292.708 381.729 292.571 381.991 292.296C382.253 292.021 382.385 291.646 382.385 291.172V290.385H384.502V292.708H386.807V294.62H384.502V299.435C384.502 299.785 384.558 300.085 384.671 300.335C384.783 300.572 384.964 300.759 385.214 300.897C385.464 301.022 385.789 301.084 386.189 301.084C386.288 301.084 386.401 301.078 386.526 301.065C386.651 301.053 386.769 301.04 386.882 301.028V302.846C386.707 302.871 386.513 302.896 386.301 302.921C386.089 302.946 385.901 302.958 385.739 302.958ZM158.661 327.07C157.624 327.07 156.712 326.814 155.925 326.302C155.15 325.79 154.607 325.103 154.295 324.241L155.925 323.473C156.2 324.047 156.574 324.503 157.049 324.841C157.536 325.178 158.073 325.347 158.661 325.347C159.16 325.347 159.566 325.234 159.879 325.009C160.191 324.784 160.347 324.478 160.347 324.091C160.347 323.841 160.278 323.641 160.141 323.491C160.003 323.329 159.829 323.198 159.616 323.098C159.416 322.998 159.21 322.923 158.998 322.873L157.405 322.423C156.531 322.174 155.875 321.799 155.438 321.299C155.013 320.787 154.8 320.194 154.8 319.519C154.8 318.907 154.957 318.376 155.269 317.926C155.581 317.464 156.012 317.108 156.562 316.858C157.112 316.608 157.73 316.483 158.417 316.483C159.341 316.483 160.166 316.714 160.89 317.177C161.615 317.626 162.127 318.257 162.427 319.069L160.797 319.837C160.597 319.35 160.278 318.963 159.841 318.676C159.416 318.388 158.935 318.245 158.398 318.245C157.936 318.245 157.567 318.357 157.293 318.582C157.018 318.794 156.88 319.075 156.88 319.425C156.88 319.663 156.943 319.862 157.068 320.025C157.193 320.175 157.355 320.3 157.555 320.4C157.755 320.487 157.961 320.562 158.173 320.625L159.822 321.112C160.659 321.349 161.303 321.724 161.752 322.236C162.202 322.736 162.427 323.335 162.427 324.035C162.427 324.634 162.265 325.165 161.94 325.628C161.627 326.077 161.19 326.433 160.628 326.696C160.066 326.946 159.41 327.07 158.661 327.07ZM168.118 327.07C167.356 327.07 166.688 326.902 166.113 326.565C165.538 326.215 165.089 325.734 164.764 325.122C164.452 324.497 164.295 323.779 164.295 322.967V316.708H166.413V322.779C166.413 323.242 166.507 323.648 166.694 323.997C166.881 324.347 167.144 324.622 167.481 324.822C167.818 325.009 168.206 325.103 168.643 325.103C169.092 325.103 169.486 325.003 169.823 324.803C170.161 324.603 170.423 324.322 170.61 323.96C170.81 323.598 170.91 323.173 170.91 322.686V316.708H173.009V326.846H171.004V324.859L171.229 325.122C170.991 325.746 170.598 326.227 170.048 326.565C169.498 326.902 168.855 327.07 168.118 327.07ZM180.297 327.07C179.285 327.07 178.385 326.839 177.598 326.377C176.824 325.902 176.206 325.265 175.743 324.466C175.294 323.666 175.069 322.761 175.069 321.749C175.069 320.749 175.294 319.85 175.743 319.05C176.193 318.251 176.811 317.626 177.598 317.177C178.385 316.714 179.285 316.483 180.297 316.483C180.984 316.483 181.627 316.608 182.227 316.858C182.826 317.095 183.345 317.427 183.782 317.851C184.232 318.276 184.563 318.769 184.775 319.332L182.92 320.194C182.708 319.669 182.364 319.25 181.889 318.938C181.427 318.613 180.896 318.451 180.297 318.451C179.722 318.451 179.204 318.595 178.741 318.882C178.292 319.157 177.936 319.55 177.673 320.062C177.411 320.562 177.28 321.13 177.28 321.768C177.28 322.405 177.411 322.979 177.673 323.491C177.936 323.991 178.292 324.385 178.741 324.672C179.204 324.959 179.722 325.103 180.297 325.103C180.909 325.103 181.44 324.947 181.889 324.634C182.352 324.31 182.695 323.879 182.92 323.342L184.775 324.222C184.575 324.759 184.25 325.247 183.801 325.684C183.364 326.109 182.845 326.446 182.246 326.696C181.646 326.946 180.996 327.07 180.297 327.07ZM191.66 327.07C190.649 327.07 189.749 326.839 188.962 326.377C188.188 325.902 187.569 325.265 187.107 324.466C186.657 323.666 186.432 322.761 186.432 321.749C186.432 320.749 186.657 319.85 187.107 319.05C187.557 318.251 188.175 317.626 188.962 317.177C189.749 316.714 190.649 316.483 191.66 316.483C192.347 316.483 192.991 316.608 193.59 316.858C194.19 317.095 194.708 317.427 195.146 317.851C195.595 318.276 195.926 318.769 196.139 319.332L194.284 320.194C194.071 319.669 193.728 319.25 193.253 318.938C192.791 318.613 192.26 318.451 191.66 318.451C191.086 318.451 190.567 318.595 190.105 318.882C189.655 319.157 189.299 319.55 189.037 320.062C188.775 320.562 188.644 321.13 188.644 321.768C188.644 322.405 188.775 322.979 189.037 323.491C189.299 323.991 189.655 324.385 190.105 324.672C190.567 324.959 191.086 325.103 191.66 325.103C192.273 325.103 192.803 324.947 193.253 324.634C193.715 324.31 194.059 323.879 194.284 323.342L196.139 324.222C195.939 324.759 195.614 325.247 195.164 325.684C194.727 326.109 194.209 326.446 193.609 326.696C193.01 326.946 192.36 327.07 191.66 327.07ZM202.968 327.07C201.956 327.07 201.057 326.839 200.27 326.377C199.495 325.902 198.889 325.265 198.452 324.466C198.015 323.654 197.796 322.748 197.796 321.749C197.796 320.724 198.015 319.819 198.452 319.032C198.902 318.245 199.501 317.626 200.251 317.177C201 316.714 201.85 316.483 202.799 316.483C203.561 316.483 204.242 316.615 204.842 316.877C205.441 317.139 205.947 317.501 206.36 317.964C206.772 318.413 207.084 318.932 207.296 319.519C207.521 320.106 207.634 320.731 207.634 321.393C207.634 321.555 207.627 321.724 207.615 321.899C207.602 322.074 207.577 322.236 207.54 322.386H199.464V320.699H206.341L205.329 321.468C205.454 320.856 205.41 320.312 205.198 319.837C204.998 319.35 204.686 318.969 204.261 318.694C203.849 318.407 203.361 318.263 202.799 318.263C202.237 318.263 201.737 318.407 201.3 318.694C200.863 318.969 200.526 319.369 200.288 319.894C200.051 320.406 199.957 321.03 200.007 321.768C199.945 322.455 200.038 323.054 200.288 323.566C200.551 324.079 200.913 324.478 201.375 324.766C201.85 325.053 202.387 325.197 202.987 325.197C203.599 325.197 204.117 325.059 204.542 324.784C204.979 324.51 205.323 324.154 205.572 323.716L207.296 324.56C207.097 325.034 206.784 325.465 206.36 325.852C205.947 326.227 205.448 326.527 204.86 326.752C204.286 326.964 203.655 327.07 202.968 327.07ZM213.448 327.07C212.411 327.07 211.499 326.814 210.712 326.302C209.938 325.79 209.394 325.103 209.082 324.241L210.712 323.473C210.987 324.047 211.362 324.503 211.836 324.841C212.324 325.178 212.861 325.347 213.448 325.347C213.947 325.347 214.353 325.234 214.666 325.009C214.978 324.784 215.134 324.478 215.134 324.091C215.134 323.841 215.066 323.641 214.928 323.491C214.791 323.329 214.616 323.198 214.403 323.098C214.204 322.998 213.997 322.923 213.785 322.873L212.192 322.423C211.318 322.174 210.662 321.799 210.225 321.299C209.8 320.787 209.588 320.194 209.588 319.519C209.588 318.907 209.744 318.376 210.056 317.926C210.368 317.464 210.799 317.108 211.349 316.858C211.899 316.608 212.517 316.483 213.204 316.483C214.129 316.483 214.953 316.714 215.678 317.177C216.402 317.626 216.914 318.257 217.214 319.069L215.584 319.837C215.384 319.35 215.066 318.963 214.628 318.676C214.204 318.388 213.723 318.245 213.185 318.245C212.723 318.245 212.355 318.357 212.08 318.582C211.805 318.794 211.668 319.075 211.668 319.425C211.668 319.663 211.73 319.862 211.855 320.025C211.98 320.175 212.142 320.3 212.342 320.4C212.542 320.487 212.748 320.562 212.961 320.625L214.61 321.112C215.447 321.349 216.09 321.724 216.54 322.236C216.989 322.736 217.214 323.335 217.214 324.035C217.214 324.634 217.052 325.165 216.727 325.628C216.415 326.077 215.977 326.433 215.415 326.696C214.853 326.946 214.197 327.07 213.448 327.07ZM223.036 327.07C222 327.07 221.088 326.814 220.301 326.302C219.526 325.79 218.983 325.103 218.67 324.241L220.301 323.473C220.576 324.047 220.95 324.503 221.425 324.841C221.912 325.178 222.449 325.347 223.036 325.347C223.536 325.347 223.942 325.234 224.254 325.009C224.567 324.784 224.723 324.478 224.723 324.091C224.723 323.841 224.654 323.641 224.517 323.491C224.379 323.329 224.205 323.198 223.992 323.098C223.792 322.998 223.586 322.923 223.374 322.873L221.781 322.423C220.907 322.174 220.251 321.799 219.814 321.299C219.389 320.787 219.176 320.194 219.176 319.519C219.176 318.907 219.333 318.376 219.645 317.926C219.957 317.464 220.388 317.108 220.938 316.858C221.487 316.608 222.106 316.483 222.793 316.483C223.717 316.483 224.542 316.714 225.266 317.177C225.991 317.626 226.503 318.257 226.803 319.069L225.173 319.837C224.973 319.35 224.654 318.963 224.217 318.676C223.792 318.388 223.311 318.245 222.774 318.245C222.312 318.245 221.943 318.357 221.669 318.582C221.394 318.794 221.256 319.075 221.256 319.425C221.256 319.663 221.319 319.862 221.444 320.025C221.569 320.175 221.731 320.3 221.931 320.4C222.131 320.487 222.337 320.562 222.549 320.625L224.198 321.112C225.035 321.349 225.679 321.724 226.128 322.236C226.578 322.736 226.803 323.335 226.803 324.035C226.803 324.634 226.64 325.165 226.316 325.628C226.003 326.077 225.566 326.433 225.004 326.696C224.442 326.946 223.786 327.07 223.036 327.07ZM230.021 326.846V318.62H228.147V316.708H230.021V316.184C230.021 315.422 230.177 314.784 230.489 314.272C230.801 313.748 231.232 313.348 231.782 313.073C232.344 312.798 232.987 312.661 233.712 312.661C233.849 312.661 234.006 312.673 234.18 312.698C234.355 312.711 234.499 312.729 234.611 312.754V314.591C234.511 314.566 234.399 314.553 234.274 314.553C234.149 314.541 234.049 314.535 233.974 314.535C233.412 314.535 232.962 314.666 232.625 314.928C232.288 315.178 232.119 315.596 232.119 316.184V316.708H234.443V318.62H232.119V326.846H230.021ZM240.033 327.07C239.271 327.07 238.603 326.902 238.028 326.565C237.454 326.215 237.004 325.734 236.679 325.122C236.367 324.497 236.211 323.779 236.211 322.967V316.708H238.328V322.779C238.328 323.242 238.422 323.648 238.609 323.997C238.796 324.347 239.059 324.622 239.396 324.822C239.733 325.009 240.121 325.103 240.558 325.103C241.008 325.103 241.401 325.003 241.738 324.803C242.076 324.603 242.338 324.322 242.525 323.96C242.725 323.598 242.825 323.173 242.825 322.686V316.708H244.924V326.846H242.919V324.859L243.144 325.122C242.906 325.746 242.513 326.227 241.963 326.565C241.414 326.902 240.77 327.07 240.033 327.07ZM247.396 326.846V312.661H249.514V326.846H247.396ZM258.3 327.07C257.613 327.07 257.007 326.952 256.483 326.714C255.971 326.465 255.571 326.127 255.283 325.703C254.996 325.265 254.852 324.753 254.852 324.166C254.852 323.616 254.971 323.123 255.208 322.686C255.458 322.248 255.839 321.88 256.352 321.58C256.864 321.28 257.507 321.068 258.282 320.943L261.804 320.362V322.03L258.694 322.573C258.132 322.673 257.719 322.854 257.457 323.117C257.195 323.367 257.064 323.691 257.064 324.091C257.064 324.478 257.207 324.797 257.495 325.047C257.794 325.284 258.175 325.403 258.638 325.403C259.212 325.403 259.712 325.278 260.137 325.028C260.574 324.778 260.911 324.447 261.149 324.035C261.386 323.61 261.505 323.142 261.505 322.629V320.025C261.505 319.525 261.317 319.119 260.942 318.807C260.58 318.482 260.093 318.32 259.481 318.32C258.919 318.32 258.425 318.47 258 318.769C257.588 319.057 257.282 319.432 257.082 319.894L255.321 319.013C255.508 318.513 255.814 318.076 256.239 317.701C256.664 317.314 257.157 317.014 257.719 316.802C258.294 316.59 258.9 316.483 259.537 316.483C260.337 316.483 261.042 316.633 261.654 316.933C262.279 317.233 262.76 317.651 263.097 318.189C263.447 318.713 263.622 319.325 263.622 320.025V326.846H261.598V325.009L262.029 325.065C261.792 325.478 261.486 325.834 261.111 326.134C260.749 326.433 260.33 326.664 259.856 326.827C259.393 326.989 258.875 327.07 258.3 327.07ZM266.098 326.846V316.708H268.121V318.694L267.878 318.432C268.128 317.795 268.527 317.314 269.077 316.989C269.627 316.652 270.264 316.483 270.988 316.483C271.738 316.483 272.4 316.646 272.975 316.971C273.549 317.295 273.999 317.745 274.324 318.32C274.649 318.894 274.811 319.556 274.811 320.306V326.846H272.712V320.868C272.712 320.356 272.619 319.925 272.431 319.575C272.244 319.213 271.975 318.938 271.625 318.751C271.288 318.551 270.901 318.451 270.464 318.451C270.027 318.451 269.633 318.551 269.283 318.751C268.946 318.938 268.684 319.213 268.496 319.575C268.309 319.937 268.215 320.368 268.215 320.868V326.846H266.098ZM281.762 327.07C280.787 327.07 279.913 326.839 279.138 326.377C278.376 325.902 277.77 325.265 277.321 324.466C276.884 323.666 276.665 322.767 276.665 321.768C276.665 320.768 276.89 319.869 277.339 319.069C277.789 318.27 278.395 317.639 279.157 317.177C279.919 316.714 280.781 316.483 281.743 316.483C282.555 316.483 283.273 316.646 283.898 316.971C284.522 317.295 285.016 317.745 285.378 318.32L285.06 318.807V312.661H287.158V326.846H285.153V324.784L285.397 325.178C285.047 325.79 284.547 326.258 283.898 326.583C283.248 326.908 282.536 327.07 281.762 327.07ZM281.968 325.103C282.555 325.103 283.08 324.959 283.542 324.672C284.017 324.385 284.385 323.991 284.647 323.491C284.922 322.979 285.06 322.405 285.06 321.768C285.06 321.13 284.922 320.562 284.647 320.062C284.385 319.563 284.017 319.169 283.542 318.882C283.08 318.595 282.555 318.451 281.968 318.451C281.381 318.451 280.85 318.595 280.375 318.882C279.9 319.169 279.532 319.563 279.27 320.062C279.007 320.562 278.876 321.13 278.876 321.768C278.876 322.405 279.007 322.979 279.27 323.491C279.532 323.991 279.894 324.385 280.356 324.672C280.831 324.959 281.368 325.103 281.968 325.103ZM295.941 327.07C295.254 327.07 294.648 326.952 294.124 326.714C293.612 326.465 293.212 326.127 292.925 325.703C292.637 325.265 292.494 324.753 292.494 324.166C292.494 323.616 292.612 323.123 292.85 322.686C293.099 322.248 293.48 321.88 293.993 321.58C294.505 321.28 295.148 321.068 295.923 320.943L299.445 320.362V322.03L296.335 322.573C295.773 322.673 295.36 322.854 295.098 323.117C294.836 323.367 294.705 323.691 294.705 324.091C294.705 324.478 294.848 324.797 295.136 325.047C295.435 325.284 295.816 325.403 296.279 325.403C296.853 325.403 297.353 325.278 297.778 325.028C298.215 324.778 298.552 324.447 298.79 324.035C299.027 323.61 299.146 323.142 299.146 322.629V320.025C299.146 319.525 298.958 319.119 298.583 318.807C298.221 318.482 297.734 318.32 297.122 318.32C296.56 318.32 296.066 318.47 295.642 318.769C295.229 319.057 294.923 319.432 294.723 319.894L292.962 319.013C293.149 318.513 293.455 318.076 293.88 317.701C294.305 317.314 294.798 317.014 295.36 316.802C295.935 316.59 296.541 316.483 297.178 316.483C297.978 316.483 298.683 316.633 299.296 316.933C299.92 317.233 300.401 317.651 300.738 318.189C301.088 318.713 301.263 319.325 301.263 320.025V326.846H299.239V325.009L299.67 325.065C299.433 325.478 299.127 325.834 298.752 326.134C298.39 326.433 297.971 326.664 297.497 326.827C297.034 326.989 296.516 327.07 295.941 327.07ZM308.555 327.07C307.543 327.07 306.643 326.839 305.856 326.377C305.082 325.902 304.463 325.265 304.001 324.466C303.551 323.666 303.327 322.761 303.327 321.749C303.327 320.749 303.551 319.85 304.001 319.05C304.451 318.251 305.069 317.626 305.856 317.177C306.643 316.714 307.543 316.483 308.555 316.483C309.242 316.483 309.885 316.608 310.485 316.858C311.084 317.095 311.603 317.427 312.04 317.851C312.49 318.276 312.821 318.769 313.033 319.332L311.178 320.194C310.965 319.669 310.622 319.25 310.147 318.938C309.685 318.613 309.154 318.451 308.555 318.451C307.98 318.451 307.461 318.595 306.999 318.882C306.55 319.157 306.193 319.55 305.931 320.062C305.669 320.562 305.538 321.13 305.538 321.768C305.538 322.405 305.669 322.979 305.931 323.491C306.193 323.991 306.55 324.385 306.999 324.672C307.461 324.959 307.98 325.103 308.555 325.103C309.167 325.103 309.698 324.947 310.147 324.634C310.609 324.31 310.953 323.879 311.178 323.342L313.033 324.222C312.833 324.759 312.508 325.247 312.059 325.684C311.621 326.109 311.103 326.446 310.503 326.696C309.904 326.946 309.254 327.07 308.555 327.07ZM319.918 327.07C318.906 327.07 318.007 326.839 317.22 326.377C316.445 325.902 315.827 325.265 315.365 324.466C314.915 323.666 314.69 322.761 314.69 321.749C314.69 320.749 314.915 319.85 315.365 319.05C315.815 318.251 316.433 317.626 317.22 317.177C318.007 316.714 318.906 316.483 319.918 316.483C320.605 316.483 321.249 316.608 321.848 316.858C322.448 317.095 322.966 317.427 323.403 317.851C323.853 318.276 324.184 318.769 324.397 319.332L322.542 320.194C322.329 319.669 321.986 319.25 321.511 318.938C321.049 318.613 320.518 318.451 319.918 318.451C319.344 318.451 318.825 318.595 318.363 318.882C317.913 319.157 317.557 319.55 317.295 320.062C317.033 320.562 316.901 321.13 316.901 321.768C316.901 322.405 317.033 322.979 317.295 323.491C317.557 323.991 317.913 324.385 318.363 324.672C318.825 324.959 319.344 325.103 319.918 325.103C320.53 325.103 321.061 324.947 321.511 324.634C321.973 324.31 322.317 323.879 322.542 323.342L324.397 324.222C324.197 324.759 323.872 325.247 323.422 325.684C322.985 326.109 322.467 326.446 321.867 326.696C321.267 326.946 320.618 327.07 319.918 327.07ZM331.357 327.07C330.382 327.07 329.489 326.839 328.677 326.377C327.878 325.915 327.241 325.284 326.766 324.485C326.291 323.685 326.054 322.779 326.054 321.768C326.054 320.743 326.291 319.837 326.766 319.05C327.241 318.251 327.878 317.626 328.677 317.177C329.477 316.714 330.37 316.483 331.357 316.483C332.356 316.483 333.249 316.714 334.036 317.177C334.836 317.626 335.467 318.251 335.929 319.05C336.404 319.837 336.641 320.743 336.641 321.768C336.641 322.792 336.404 323.704 335.929 324.503C335.454 325.303 334.817 325.934 334.018 326.396C333.218 326.846 332.331 327.07 331.357 327.07ZM331.357 325.103C331.956 325.103 332.487 324.959 332.95 324.672C333.412 324.385 333.774 323.991 334.036 323.491C334.311 322.979 334.449 322.405 334.449 321.768C334.449 321.13 334.311 320.562 334.036 320.062C333.774 319.563 333.412 319.169 332.95 318.882C332.487 318.595 331.956 318.451 331.357 318.451C330.77 318.451 330.239 318.595 329.764 318.882C329.302 319.169 328.933 319.563 328.659 320.062C328.396 320.562 328.265 321.13 328.265 321.768C328.265 322.405 328.396 322.979 328.659 323.491C328.933 323.991 329.302 324.385 329.764 324.672C330.239 324.959 330.77 325.103 331.357 325.103ZM342.325 327.07C341.563 327.07 340.894 326.902 340.32 326.565C339.745 326.215 339.295 325.734 338.971 325.122C338.658 324.497 338.502 323.779 338.502 322.967V316.708H340.62V322.779C340.62 323.242 340.713 323.648 340.901 323.997C341.088 324.347 341.35 324.622 341.688 324.822C342.025 325.009 342.412 325.103 342.849 325.103C343.299 325.103 343.693 325.003 344.03 324.803C344.367 324.603 344.629 324.322 344.817 323.96C345.017 323.598 345.117 323.173 345.117 322.686V316.708H347.215V326.846H345.21V324.859L345.435 325.122C345.198 325.746 344.804 326.227 344.255 326.565C343.705 326.902 343.062 327.07 342.325 327.07ZM349.688 326.846V316.708H351.711V318.694L351.468 318.432C351.718 317.795 352.117 317.314 352.667 316.989C353.217 316.652 353.854 316.483 354.578 316.483C355.328 316.483 355.99 316.646 356.565 316.971C357.139 317.295 357.589 317.745 357.914 318.32C358.238 318.894 358.401 319.556 358.401 320.306V326.846H356.302V320.868C356.302 320.356 356.209 319.925 356.021 319.575C355.834 319.213 355.565 318.938 355.215 318.751C354.878 318.551 354.491 318.451 354.054 318.451C353.616 318.451 353.223 318.551 352.873 318.751C352.536 318.938 352.273 319.213 352.086 319.575C351.899 319.937 351.805 320.368 351.805 320.868V326.846H349.688ZM365.052 326.958C363.99 326.958 363.165 326.658 362.578 326.059C361.991 325.459 361.698 324.616 361.698 323.529V318.62H359.917V316.708H360.199C360.673 316.708 361.042 316.571 361.304 316.296C361.566 316.021 361.698 315.646 361.698 315.172V314.385H363.815V316.708H366.12V318.62H363.815V323.435C363.815 323.785 363.871 324.085 363.984 324.335C364.096 324.572 364.277 324.759 364.527 324.897C364.777 325.022 365.102 325.084 365.501 325.084C365.601 325.084 365.714 325.078 365.839 325.065C365.964 325.053 366.082 325.04 366.195 325.028V326.846C366.02 326.871 365.826 326.896 365.614 326.921C365.402 326.946 365.214 326.958 365.052 326.958ZM371.537 330.593V316.708H373.56V318.807L373.317 318.32C373.692 317.745 374.191 317.295 374.816 316.971C375.44 316.646 376.152 316.483 376.952 316.483C377.914 316.483 378.776 316.714 379.538 317.177C380.312 317.639 380.918 318.27 381.355 319.069C381.805 319.869 382.03 320.768 382.03 321.768C382.03 322.767 381.805 323.666 381.355 324.466C380.918 325.265 380.319 325.902 379.557 326.377C378.795 326.839 377.926 327.07 376.952 327.07C376.165 327.07 375.447 326.908 374.797 326.583C374.16 326.258 373.667 325.79 373.317 325.178L373.654 324.784V330.593H371.537ZM376.746 325.103C377.345 325.103 377.876 324.959 378.339 324.672C378.801 324.385 379.163 323.991 379.425 323.491C379.7 322.979 379.838 322.405 379.838 321.768C379.838 321.13 379.7 320.562 379.425 320.062C379.163 319.563 378.801 319.169 378.339 318.882C377.876 318.595 377.345 318.451 376.746 318.451C376.159 318.451 375.628 318.595 375.153 318.882C374.691 319.169 374.322 319.563 374.048 320.062C373.785 320.562 373.654 321.13 373.654 321.768C373.654 322.405 373.785 322.979 374.048 323.491C374.322 323.991 374.691 324.385 375.153 324.672C375.628 324.959 376.159 325.103 376.746 325.103ZM387.706 327.07C386.944 327.07 386.276 326.902 385.701 326.565C385.127 326.215 384.677 325.734 384.352 325.122C384.04 324.497 383.884 323.779 383.884 322.967V316.708H386.001V322.779C386.001 323.242 386.095 323.648 386.282 323.997C386.47 324.347 386.732 324.622 387.069 324.822C387.406 325.009 387.794 325.103 388.231 325.103C388.681 325.103 389.074 325.003 389.411 324.803C389.749 324.603 390.011 324.322 390.198 323.96C390.398 323.598 390.498 323.173 390.498 322.686V316.708H392.597V326.846H390.592V324.859L390.817 325.122C390.579 325.746 390.186 326.227 389.636 326.565C389.087 326.902 388.443 327.07 387.706 327.07ZM399.454 326.958C398.392 326.958 397.568 326.658 396.98 326.059C396.393 325.459 396.1 324.616 396.1 323.529V318.62H394.32V316.708H394.601C395.075 316.708 395.444 316.571 395.706 316.296C395.969 316.021 396.1 315.646 396.1 315.172V314.385H398.217V316.708H400.522V318.62H398.217V323.435C398.217 323.785 398.273 324.085 398.386 324.335C398.498 324.572 398.679 324.759 398.929 324.897C399.179 325.022 399.504 325.084 399.904 325.084C400.004 325.084 400.116 325.078 400.241 325.065C400.366 325.053 400.485 325.04 400.597 325.028V326.846C400.422 326.871 400.228 326.896 400.016 326.921C399.804 326.946 399.616 326.958 399.454 326.958ZM246.998 351.07C246.024 351.07 245.131 350.839 244.319 350.377C243.519 349.915 242.882 349.284 242.408 348.485C241.933 347.685 241.695 346.779 241.695 345.768C241.695 344.743 241.933 343.837 242.408 343.05C242.882 342.251 243.519 341.626 244.319 341.177C245.118 340.714 246.012 340.483 246.998 340.483C247.998 340.483 248.891 340.714 249.678 341.177C250.477 341.626 251.108 342.251 251.571 343.05C252.045 343.837 252.283 344.743 252.283 345.768C252.283 346.792 252.045 347.704 251.571 348.503C251.096 349.303 250.459 349.934 249.659 350.396C248.86 350.846 247.973 351.07 246.998 351.07ZM246.998 349.103C247.598 349.103 248.129 348.959 248.591 348.672C249.053 348.385 249.416 347.991 249.678 347.491C249.953 346.979 250.09 346.405 250.09 345.768C250.09 345.13 249.953 344.562 249.678 344.062C249.416 343.563 249.053 343.169 248.591 342.882C248.129 342.595 247.598 342.451 246.998 342.451C246.411 342.451 245.88 342.595 245.406 342.882C244.943 343.169 244.575 343.563 244.3 344.062C244.038 344.562 243.907 345.13 243.907 345.768C243.907 346.405 244.038 346.979 244.3 347.491C244.575 347.991 244.943 348.385 245.406 348.672C245.88 348.959 246.411 349.103 246.998 349.103ZM254.35 350.846V340.708H256.373V342.694L256.13 342.432C256.38 341.795 256.779 341.314 257.329 340.989C257.879 340.652 258.516 340.483 259.24 340.483C259.99 340.483 260.652 340.646 261.227 340.971C261.801 341.295 262.251 341.745 262.576 342.32C262.901 342.894 263.063 343.556 263.063 344.306V350.846H260.964V344.868C260.964 344.356 260.871 343.925 260.683 343.575C260.496 343.213 260.227 342.938 259.878 342.751C259.54 342.551 259.153 342.451 258.716 342.451C258.279 342.451 257.885 342.551 257.535 342.751C257.198 342.938 256.936 343.213 256.748 343.575C256.561 343.937 256.467 344.368 256.467 344.868V350.846H254.35ZM268.605 350.846V336.661H270.722V342.694L270.385 342.432C270.635 341.795 271.034 341.314 271.584 340.989C272.134 340.652 272.771 340.483 273.495 340.483C274.245 340.483 274.907 340.646 275.482 340.971C276.056 341.295 276.506 341.745 276.831 342.32C277.156 342.894 277.318 343.55 277.318 344.287V350.846H275.219V344.868C275.219 344.356 275.119 343.925 274.919 343.575C274.732 343.213 274.47 342.938 274.132 342.751C273.795 342.551 273.408 342.451 272.971 342.451C272.546 342.451 272.159 342.551 271.809 342.751C271.472 342.938 271.203 343.213 271.003 343.575C270.816 343.937 270.722 344.368 270.722 344.868V350.846H268.605ZM284.475 351.07C283.5 351.07 282.607 350.839 281.795 350.377C280.996 349.915 280.359 349.284 279.884 348.485C279.409 347.685 279.172 346.779 279.172 345.768C279.172 344.743 279.409 343.837 279.884 343.05C280.359 342.251 280.996 341.626 281.795 341.177C282.595 340.714 283.488 340.483 284.475 340.483C285.474 340.483 286.367 340.714 287.154 341.177C287.954 341.626 288.585 342.251 289.047 343.05C289.522 343.837 289.759 344.743 289.759 345.768C289.759 346.792 289.522 347.704 289.047 348.503C288.572 349.303 287.935 349.934 287.136 350.396C286.336 350.846 285.449 351.07 284.475 351.07ZM284.475 349.103C285.074 349.103 285.605 348.959 286.068 348.672C286.53 348.385 286.892 347.991 287.154 347.491C287.429 346.979 287.567 346.405 287.567 345.768C287.567 345.13 287.429 344.562 287.154 344.062C286.892 343.563 286.53 343.169 286.068 342.882C285.605 342.595 285.074 342.451 284.475 342.451C283.888 342.451 283.357 342.595 282.882 342.882C282.42 343.169 282.051 343.563 281.776 344.062C281.514 344.562 281.383 345.13 281.383 345.768C281.383 346.405 281.514 346.979 281.776 347.491C282.051 347.991 282.42 348.385 282.882 348.672C283.357 348.959 283.888 349.103 284.475 349.103ZM291.826 350.846V336.661H293.944V350.846H291.826ZM301.104 351.07C300.129 351.07 299.255 350.839 298.48 350.377C297.718 349.902 297.112 349.265 296.663 348.466C296.226 347.666 296.007 346.767 296.007 345.768C296.007 344.768 296.232 343.869 296.682 343.069C297.131 342.27 297.737 341.639 298.499 341.177C299.261 340.714 300.123 340.483 301.085 340.483C301.897 340.483 302.615 340.646 303.24 340.971C303.864 341.295 304.358 341.745 304.72 342.32L304.402 342.807V336.661H306.5V350.846H304.495V348.784L304.739 349.178C304.389 349.79 303.889 350.258 303.24 350.583C302.59 350.908 301.878 351.07 301.104 351.07ZM301.31 349.103C301.897 349.103 302.422 348.959 302.884 348.672C303.359 348.385 303.727 347.991 303.989 347.491C304.264 346.979 304.402 346.405 304.402 345.768C304.402 345.13 304.264 344.562 303.989 344.062C303.727 343.563 303.359 343.169 302.884 342.882C302.422 342.595 301.897 342.451 301.31 342.451C300.723 342.451 300.192 342.595 299.717 342.882C299.242 343.169 298.874 343.563 298.612 344.062C298.349 344.562 298.218 345.13 298.218 345.768C298.218 346.405 298.349 346.979 298.612 347.491C298.874 347.991 299.236 348.385 299.698 348.672C300.173 348.959 300.71 349.103 301.31 349.103ZM309.909 350.846V348.41H312.064V350.846H309.909Z" fill="black"/>
<path d="M152.584 382.019V377.953L149.508 373.136H150.832L153.407 377.178H152.93L155.494 373.136H156.818L153.765 377.953V382.019H152.584ZM159.704 382.162C159.084 382.162 158.524 382.019 158.023 381.733C157.522 381.439 157.125 381.037 156.83 380.529C156.536 380.02 156.389 379.444 156.389 378.8C156.389 378.156 156.532 377.583 156.819 377.083C157.113 376.582 157.51 376.184 158.011 375.89C158.512 375.596 159.076 375.449 159.704 375.449C160.324 375.449 160.885 375.596 161.386 375.89C161.886 376.176 162.28 376.57 162.566 377.071C162.86 377.571 163.007 378.148 163.007 378.8C163.007 379.451 162.856 380.032 162.554 380.541C162.252 381.041 161.851 381.439 161.35 381.733C160.857 382.019 160.308 382.162 159.704 382.162ZM159.704 381.089C160.102 381.089 160.459 380.99 160.777 380.791C161.103 380.592 161.358 380.318 161.541 379.968C161.731 379.618 161.827 379.229 161.827 378.8C161.827 378.362 161.731 377.977 161.541 377.643C161.358 377.301 161.103 377.031 160.777 376.832C160.459 376.625 160.102 376.522 159.704 376.522C159.299 376.522 158.933 376.625 158.607 376.832C158.289 377.031 158.035 377.301 157.844 377.643C157.653 377.977 157.558 378.362 157.558 378.8C157.558 379.229 157.653 379.618 157.844 379.968C158.035 380.318 158.289 380.592 158.607 380.791C158.933 380.99 159.299 381.089 159.704 381.089ZM166.731 382.162C166.27 382.162 165.853 382.055 165.479 381.84C165.113 381.626 164.827 381.328 164.621 380.946C164.422 380.556 164.322 380.111 164.322 379.61V375.592H165.431V379.491C165.431 379.809 165.495 380.087 165.622 380.326C165.757 380.564 165.94 380.751 166.171 380.886C166.409 381.021 166.68 381.089 166.982 381.089C167.284 381.089 167.55 381.021 167.781 380.886C168.019 380.751 168.202 380.556 168.329 380.302C168.464 380.048 168.532 379.746 168.532 379.396V375.592H169.653V382.019H168.568V380.767L168.746 380.874C168.595 381.28 168.337 381.598 167.971 381.828C167.614 382.051 167.2 382.162 166.731 382.162ZM171.371 382.019V375.592H172.456V376.772L172.337 376.606C172.488 376.24 172.718 375.97 173.028 375.795C173.338 375.612 173.716 375.52 174.161 375.52H174.554V376.57H173.994C173.541 376.57 173.175 376.713 172.897 376.999C172.619 377.277 172.48 377.675 172.48 378.191V382.019H171.371ZM180.212 382.091C179.584 382.091 179.099 381.912 178.757 381.554C178.423 381.196 178.257 380.692 178.257 380.04V376.653H177.088V375.592H177.326C177.613 375.592 177.839 375.505 178.006 375.33C178.173 375.155 178.257 374.924 178.257 374.638V374.113H179.365V375.592H180.808V376.653H179.365V380.004C179.365 380.219 179.397 380.405 179.461 380.564C179.532 380.723 179.648 380.851 179.807 380.946C179.966 381.033 180.176 381.077 180.439 381.077C180.494 381.077 180.562 381.073 180.641 381.065C180.729 381.057 180.808 381.049 180.88 381.041V382.019C180.777 382.043 180.661 382.059 180.534 382.067C180.407 382.083 180.3 382.091 180.212 382.091ZM182.328 382.019V375.592H183.414V376.772L183.294 376.606C183.445 376.24 183.676 375.97 183.986 375.795C184.296 375.612 184.674 375.52 185.119 375.52H185.512V376.57H184.952C184.499 376.57 184.133 376.713 183.855 376.999C183.577 377.277 183.437 377.675 183.437 378.191V382.019H182.328ZM188.381 382.162C187.96 382.162 187.586 382.087 187.26 381.936C186.942 381.777 186.692 381.562 186.509 381.292C186.326 381.014 186.235 380.696 186.235 380.338C186.235 379.996 186.307 379.69 186.45 379.42C186.601 379.141 186.831 378.907 187.141 378.716C187.459 378.525 187.857 378.39 188.334 378.311L190.719 377.917V378.847L188.584 379.205C188.171 379.277 187.869 379.408 187.678 379.599C187.495 379.789 187.404 380.024 187.404 380.302C187.404 380.564 187.507 380.783 187.714 380.958C187.928 381.133 188.195 381.22 188.513 381.22C188.918 381.22 189.268 381.137 189.562 380.97C189.864 380.795 190.098 380.56 190.265 380.266C190.44 379.972 190.528 379.646 190.528 379.288V377.655C190.528 377.305 190.397 377.023 190.134 376.808C189.88 376.586 189.542 376.474 189.121 376.474C188.755 376.474 188.429 376.57 188.143 376.761C187.865 376.943 187.658 377.19 187.523 377.5L186.557 376.999C186.676 376.705 186.867 376.443 187.129 376.212C187.392 375.974 187.698 375.787 188.047 375.652C188.397 375.516 188.763 375.449 189.145 375.449C189.637 375.449 190.071 375.544 190.444 375.735C190.818 375.918 191.108 376.176 191.315 376.51C191.529 376.836 191.637 377.218 191.637 377.655V382.019H190.552V380.803L190.754 380.874C190.619 381.129 190.436 381.351 190.206 381.542C189.975 381.733 189.705 381.884 189.395 381.995C189.085 382.107 188.747 382.162 188.381 382.162ZM193.356 382.019V375.592H194.441V376.844L194.262 376.737C194.421 376.331 194.676 376.017 195.026 375.795C195.383 375.564 195.801 375.449 196.278 375.449C196.739 375.449 197.148 375.552 197.506 375.759C197.871 375.966 198.158 376.252 198.364 376.617C198.579 376.983 198.686 377.397 198.686 377.858V382.019H197.565V378.215C197.565 377.858 197.502 377.556 197.375 377.309C197.247 377.063 197.065 376.872 196.826 376.737C196.596 376.594 196.329 376.522 196.027 376.522C195.725 376.522 195.455 376.594 195.216 376.737C194.986 376.872 194.803 377.067 194.668 377.321C194.533 377.567 194.465 377.866 194.465 378.215V382.019H193.356ZM202.575 382.162C201.931 382.162 201.37 382.003 200.893 381.685C200.416 381.367 200.078 380.938 199.88 380.397L200.762 379.968C200.945 380.35 201.195 380.652 201.513 380.874C201.831 381.097 202.185 381.208 202.575 381.208C202.924 381.208 203.214 381.125 203.445 380.958C203.676 380.791 203.791 380.572 203.791 380.302C203.791 380.111 203.735 379.96 203.624 379.849C203.521 379.73 203.393 379.638 203.242 379.575C203.091 379.503 202.952 379.451 202.825 379.42L201.859 379.145C201.279 378.978 200.853 378.74 200.583 378.43C200.321 378.12 200.19 377.758 200.19 377.345C200.19 376.963 200.285 376.633 200.476 376.355C200.675 376.069 200.941 375.846 201.275 375.687C201.617 375.528 201.998 375.449 202.42 375.449C202.984 375.449 203.489 375.592 203.934 375.878C204.387 376.164 204.709 376.566 204.9 377.083L203.994 377.5C203.85 377.166 203.636 376.904 203.35 376.713C203.063 376.514 202.741 376.415 202.384 376.415C202.058 376.415 201.799 376.498 201.609 376.665C201.418 376.824 201.322 377.027 201.322 377.273C201.322 377.456 201.37 377.607 201.466 377.726C201.561 377.838 201.676 377.925 201.811 377.989C201.947 378.044 202.078 378.092 202.205 378.132L203.254 378.442C203.779 378.593 204.184 378.827 204.47 379.145C204.765 379.463 204.912 379.845 204.912 380.29C204.912 380.648 204.812 380.97 204.614 381.256C204.415 381.542 204.141 381.765 203.791 381.924C203.441 382.083 203.036 382.162 202.575 382.162ZM207.043 382.019V376.653H205.815V375.592H207.043V375.139C207.043 374.678 207.142 374.288 207.341 373.97C207.548 373.652 207.818 373.41 208.152 373.243C208.494 373.076 208.871 372.992 209.285 372.992C209.372 372.992 209.468 373 209.571 373.016C209.682 373.024 209.774 373.036 209.845 373.052V374.042C209.782 374.026 209.706 374.018 209.619 374.018C209.531 374.01 209.464 374.006 209.416 374.006C209.05 374.006 208.748 374.093 208.51 374.268C208.279 374.443 208.164 374.733 208.164 375.139V375.592H209.69V376.653H208.164V382.019H207.043ZM213.757 382.162C213.137 382.162 212.585 382.015 212.1 381.721C211.615 381.427 211.233 381.025 210.955 380.517C210.677 380 210.538 379.424 210.538 378.788C210.538 378.144 210.673 377.571 210.943 377.071C211.221 376.57 211.595 376.176 212.064 375.89C212.541 375.596 213.074 375.449 213.662 375.449C214.139 375.449 214.56 375.536 214.926 375.711C215.3 375.878 215.614 376.109 215.868 376.403C216.13 376.689 216.329 377.019 216.464 377.393C216.607 377.758 216.679 378.14 216.679 378.537C216.679 378.625 216.671 378.724 216.655 378.835C216.647 378.939 216.635 379.038 216.619 379.133H211.349V378.18H215.975L215.451 378.609C215.522 378.195 215.482 377.826 215.331 377.5C215.18 377.174 214.958 376.916 214.664 376.725C214.369 376.534 214.036 376.439 213.662 376.439C213.288 376.439 212.946 376.534 212.636 376.725C212.326 376.916 212.084 377.19 211.909 377.548C211.742 377.897 211.675 378.315 211.706 378.8C211.675 379.269 211.746 379.682 211.921 380.04C212.104 380.39 212.358 380.664 212.684 380.863C213.018 381.053 213.38 381.149 213.769 381.149C214.198 381.149 214.56 381.049 214.854 380.851C215.148 380.652 215.387 380.397 215.57 380.087L216.5 380.564C216.373 380.859 216.174 381.129 215.904 381.375C215.641 381.614 215.327 381.805 214.962 381.948C214.604 382.091 214.202 382.162 213.757 382.162ZM218.125 382.019V375.592H219.21V376.772L219.091 376.606C219.242 376.24 219.472 375.97 219.782 375.795C220.092 375.612 220.47 375.52 220.915 375.52H221.308V376.57H220.748C220.295 376.57 219.929 376.713 219.651 376.999C219.373 377.277 219.234 377.675 219.234 378.191V382.019H218.125ZM224.355 382.019V375.592H225.464V382.019H224.355ZM224.355 374.566V373.136H225.464V374.566H224.355ZM229.486 382.162C228.842 382.162 228.281 382.003 227.804 381.685C227.327 381.367 226.99 380.938 226.791 380.397L227.673 379.968C227.856 380.35 228.106 380.652 228.424 380.874C228.742 381.097 229.096 381.208 229.486 381.208C229.836 381.208 230.126 381.125 230.356 380.958C230.587 380.791 230.702 380.572 230.702 380.302C230.702 380.111 230.646 379.96 230.535 379.849C230.432 379.73 230.305 379.638 230.153 379.575C230.002 379.503 229.863 379.451 229.736 379.42L228.77 379.145C228.19 378.978 227.765 378.74 227.494 378.43C227.232 378.12 227.101 377.758 227.101 377.345C227.101 376.963 227.196 376.633 227.387 376.355C227.586 376.069 227.852 375.846 228.186 375.687C228.528 375.528 228.909 375.449 229.331 375.449C229.895 375.449 230.4 375.592 230.845 375.878C231.298 376.164 231.62 376.566 231.811 377.083L230.905 377.5C230.762 377.166 230.547 376.904 230.261 376.713C229.975 376.514 229.653 376.415 229.295 376.415C228.969 376.415 228.711 376.498 228.52 376.665C228.329 376.824 228.234 377.027 228.234 377.273C228.234 377.456 228.281 377.607 228.377 377.726C228.472 377.838 228.587 377.925 228.723 377.989C228.858 378.044 228.989 378.092 229.116 378.132L230.165 378.442C230.69 378.593 231.096 378.827 231.382 379.145C231.676 379.463 231.823 379.845 231.823 380.29C231.823 380.648 231.724 380.97 231.525 381.256C231.326 381.542 231.052 381.765 230.702 381.924C230.352 382.083 229.947 382.162 229.486 382.162ZM233.275 382.019V375.592H234.36V376.844L234.181 376.737C234.34 376.331 234.594 376.017 234.944 375.795C235.302 375.564 235.719 375.449 236.196 375.449C236.657 375.449 237.067 375.552 237.424 375.759C237.79 375.966 238.076 376.252 238.283 376.617C238.497 376.983 238.605 377.397 238.605 377.858V382.019H237.484V378.215C237.484 377.858 237.42 377.556 237.293 377.309C237.166 377.063 236.983 376.872 236.745 376.737C236.514 376.594 236.248 376.522 235.946 376.522C235.644 376.522 235.373 376.594 235.135 376.737C234.904 376.872 234.721 377.067 234.586 377.321C234.451 377.567 234.384 377.866 234.384 378.215V382.019H233.275ZM240.382 376.105V375.568C240.629 375.505 240.812 375.389 240.931 375.222C241.058 375.047 241.134 374.829 241.157 374.566H240.621V373.136H241.778V374.149C241.778 374.666 241.658 375.095 241.42 375.437C241.189 375.771 240.843 375.993 240.382 376.105ZM246.366 382.091C245.738 382.091 245.253 381.912 244.912 381.554C244.578 381.196 244.411 380.692 244.411 380.04V376.653H243.242V375.592H243.481C243.767 375.592 243.993 375.505 244.16 375.33C244.327 375.155 244.411 374.924 244.411 374.638V374.113H245.52V375.592H246.963V376.653H245.52V380.004C245.52 380.219 245.552 380.405 245.615 380.564C245.687 380.723 245.802 380.851 245.961 380.946C246.12 381.033 246.331 381.077 246.593 381.077C246.649 381.077 246.716 381.073 246.796 381.065C246.883 381.057 246.963 381.049 247.034 381.041V382.019C246.931 382.043 246.815 382.059 246.688 382.067C246.561 382.083 246.454 382.091 246.366 382.091ZM251.224 382.019V376.653H249.995V375.592H251.224V375.139C251.224 374.678 251.323 374.288 251.522 373.97C251.728 373.652 251.999 373.41 252.333 373.243C252.674 373.076 253.052 372.992 253.465 372.992C253.553 372.992 253.648 373 253.751 373.016C253.863 373.024 253.954 373.036 254.026 373.052V374.042C253.962 374.026 253.887 374.018 253.799 374.018C253.712 374.01 253.644 374.006 253.596 374.006C253.231 374.006 252.929 374.093 252.69 374.268C252.46 374.443 252.344 374.733 252.344 375.139V375.592H253.871V376.653H252.344V382.019H251.224ZM258.033 382.162C257.413 382.162 256.853 382.019 256.352 381.733C255.851 381.439 255.454 381.037 255.159 380.529C254.865 380.02 254.718 379.444 254.718 378.8C254.718 378.156 254.861 377.583 255.147 377.083C255.442 376.582 255.839 376.184 256.34 375.89C256.841 375.596 257.405 375.449 258.033 375.449C258.653 375.449 259.214 375.596 259.714 375.89C260.215 376.176 260.609 376.57 260.895 377.071C261.189 377.571 261.336 378.148 261.336 378.8C261.336 379.451 261.185 380.032 260.883 380.541C260.581 381.041 260.18 381.439 259.679 381.733C259.186 382.019 258.637 382.162 258.033 382.162ZM258.033 381.089C258.431 381.089 258.788 380.99 259.106 380.791C259.432 380.592 259.687 380.318 259.87 379.968C260.06 379.618 260.156 379.229 260.156 378.8C260.156 378.362 260.06 377.977 259.87 377.643C259.687 377.301 259.432 377.031 259.106 376.832C258.788 376.625 258.431 376.522 258.033 376.522C257.628 376.522 257.262 376.625 256.936 376.832C256.618 377.031 256.364 377.301 256.173 377.643C255.982 377.977 255.887 378.362 255.887 378.8C255.887 379.229 255.982 379.618 256.173 379.968C256.364 380.318 256.618 380.592 256.936 380.791C257.262 380.99 257.628 381.089 258.033 381.089ZM262.783 382.019V375.592H263.868V376.772L263.748 376.606C263.899 376.24 264.13 375.97 264.44 375.795C264.75 375.612 265.128 375.52 265.573 375.52H265.966V376.57H265.406C264.953 376.57 264.587 376.713 264.309 376.999C264.031 377.277 263.892 377.675 263.892 378.191V382.019H262.783ZM271.624 382.091C270.996 382.091 270.511 381.912 270.169 381.554C269.835 381.196 269.668 380.692 269.668 380.04V376.653H268.5V375.592H268.738C269.024 375.592 269.251 375.505 269.418 375.33C269.585 375.155 269.668 374.924 269.668 374.638V374.113H270.777V375.592H272.22V376.653H270.777V380.004C270.777 380.219 270.809 380.405 270.873 380.564C270.944 380.723 271.06 380.851 271.219 380.946C271.378 381.033 271.588 381.077 271.851 381.077C271.906 381.077 271.974 381.073 272.053 381.065C272.141 381.057 272.22 381.049 272.292 381.041V382.019C272.188 382.043 272.073 382.059 271.946 382.067C271.819 382.083 271.711 382.091 271.624 382.091ZM273.74 382.019V372.992H274.849V376.844L274.647 376.737C274.806 376.331 275.06 376.017 275.41 375.795C275.767 375.564 276.185 375.449 276.662 375.449C277.123 375.449 277.532 375.552 277.89 375.759C278.256 375.966 278.542 376.252 278.749 376.617C278.963 376.983 279.071 377.397 279.071 377.858V382.019H277.95V378.215C277.95 377.858 277.882 377.556 277.747 377.309C277.62 377.063 277.441 376.872 277.21 376.737C276.98 376.594 276.713 376.522 276.411 376.522C276.117 376.522 275.851 376.594 275.612 376.737C275.374 376.872 275.187 377.067 275.052 377.321C274.917 377.567 274.849 377.866 274.849 378.215V382.019H273.74ZM283.615 382.162C282.995 382.162 282.442 382.015 281.957 381.721C281.472 381.427 281.091 381.025 280.812 380.517C280.534 380 280.395 379.424 280.395 378.788C280.395 378.144 280.53 377.571 280.8 377.071C281.079 376.57 281.452 376.176 281.921 375.89C282.398 375.596 282.931 375.449 283.519 375.449C283.996 375.449 284.418 375.536 284.783 375.711C285.157 375.878 285.471 376.109 285.725 376.403C285.988 376.689 286.186 377.019 286.321 377.393C286.465 377.758 286.536 378.14 286.536 378.537C286.536 378.625 286.528 378.724 286.512 378.835C286.504 378.939 286.492 379.038 286.476 379.133H281.206V378.18H285.833L285.308 378.609C285.379 378.195 285.34 377.826 285.189 377.5C285.038 377.174 284.815 376.916 284.521 376.725C284.227 376.534 283.893 376.439 283.519 376.439C283.146 376.439 282.804 376.534 282.494 376.725C282.184 376.916 281.941 377.19 281.766 377.548C281.599 377.897 281.532 378.315 281.564 378.8C281.532 379.269 281.603 379.682 281.778 380.04C281.961 380.39 282.215 380.664 282.541 380.863C282.875 381.053 283.237 381.149 283.627 381.149C284.056 381.149 284.418 381.049 284.712 380.851C285.006 380.652 285.244 380.397 285.427 380.087L286.357 380.564C286.23 380.859 286.031 381.129 285.761 381.375C285.499 381.614 285.185 381.805 284.819 381.948C284.461 382.091 284.06 382.162 283.615 382.162ZM290.043 382.019V375.592H291.152V382.019H290.043ZM290.043 374.566V373.136H291.152V374.566H290.043ZM292.873 382.019V375.592H293.958V376.844L293.779 376.737C293.938 376.331 294.192 376.017 294.542 375.795C294.9 375.564 295.317 375.449 295.794 375.449C296.255 375.449 296.665 375.552 297.022 375.759C297.388 375.966 297.674 376.252 297.881 376.617C298.096 376.983 298.203 377.397 298.203 377.858V382.019H297.082V378.215C297.082 377.858 297.018 377.556 296.891 377.309C296.764 377.063 296.581 376.872 296.343 376.737C296.112 376.594 295.846 376.522 295.544 376.522C295.242 376.522 294.971 376.594 294.733 376.737C294.502 376.872 294.32 377.067 294.184 377.321C294.049 377.567 293.982 377.866 293.982 378.215V382.019H292.873ZM302.401 382.091C301.773 382.091 301.288 381.912 300.946 381.554C300.613 381.196 300.446 380.692 300.446 380.04V376.653H299.277V375.592H299.516C299.802 375.592 300.028 375.505 300.195 375.33C300.362 375.155 300.446 374.924 300.446 374.638V374.113H301.555V375.592H302.997V376.653H301.555V380.004C301.555 380.219 301.586 380.405 301.65 380.564C301.722 380.723 301.837 380.851 301.996 380.946C302.155 381.033 302.365 381.077 302.628 381.077C302.683 381.077 302.751 381.073 302.831 381.065C302.918 381.057 302.997 381.049 303.069 381.041V382.019C302.966 382.043 302.85 382.059 302.723 382.067C302.596 382.083 302.489 382.091 302.401 382.091ZM307.3 382.162C306.68 382.162 306.128 382.015 305.643 381.721C305.158 381.427 304.776 381.025 304.498 380.517C304.22 380 304.081 379.424 304.081 378.788C304.081 378.144 304.216 377.571 304.486 377.071C304.764 376.57 305.138 376.176 305.607 375.89C306.084 375.596 306.617 375.449 307.205 375.449C307.682 375.449 308.103 375.536 308.469 375.711C308.842 375.878 309.156 376.109 309.411 376.403C309.673 376.689 309.872 377.019 310.007 377.393C310.15 377.758 310.222 378.14 310.222 378.537C310.222 378.625 310.214 378.724 310.198 378.835C310.19 378.939 310.178 379.038 310.162 379.133H304.891V378.18H309.518L308.993 378.609C309.065 378.195 309.025 377.826 308.874 377.5C308.723 377.174 308.501 376.916 308.206 376.725C307.912 376.534 307.578 376.439 307.205 376.439C306.831 376.439 306.489 376.534 306.179 376.725C305.869 376.916 305.627 377.19 305.452 377.548C305.285 377.897 305.217 378.315 305.249 378.8C305.217 379.269 305.289 379.682 305.464 380.04C305.647 380.39 305.901 380.664 306.227 380.863C306.561 381.053 306.923 381.149 307.312 381.149C307.741 381.149 308.103 381.049 308.397 380.851C308.691 380.652 308.93 380.397 309.113 380.087L310.043 380.564C309.916 380.859 309.717 381.129 309.447 381.375C309.184 381.614 308.87 381.805 308.505 381.948C308.147 382.091 307.745 382.162 307.3 382.162ZM311.668 382.019V375.592H312.753V376.844L312.574 376.737C312.733 376.331 312.987 376.017 313.337 375.795C313.695 375.564 314.112 375.449 314.589 375.449C315.05 375.449 315.459 375.552 315.817 375.759C316.183 375.966 316.469 376.252 316.676 376.617C316.89 376.983 316.998 377.397 316.998 377.858V382.019H315.877V378.215C315.877 377.858 315.813 377.556 315.686 377.309C315.559 377.063 315.376 376.872 315.138 376.737C314.907 376.594 314.641 376.522 314.339 376.522C314.037 376.522 313.766 376.594 313.528 376.737C313.297 376.872 313.114 377.067 312.979 377.321C312.844 377.567 312.777 377.866 312.777 378.215V382.019H311.668ZM321.506 382.162C320.902 382.162 320.357 382.015 319.872 381.721C319.395 381.427 319.018 381.025 318.74 380.517C318.461 380.008 318.322 379.44 318.322 378.812C318.322 378.168 318.461 377.595 318.74 377.094C319.018 376.586 319.395 376.184 319.872 375.89C320.357 375.596 320.902 375.449 321.506 375.449C322.039 375.449 322.512 375.564 322.925 375.795C323.338 376.017 323.664 376.319 323.903 376.701L323.724 376.975V372.992H324.845V382.019H323.76V380.648L323.903 380.839C323.68 381.26 323.354 381.586 322.925 381.816C322.504 382.047 322.031 382.162 321.506 382.162ZM321.601 381.089C322.007 381.089 322.369 380.99 322.687 380.791C323.005 380.592 323.255 380.322 323.438 379.98C323.629 379.63 323.724 379.241 323.724 378.812C323.724 378.374 323.629 377.985 323.438 377.643C323.255 377.293 323.005 377.019 322.687 376.82C322.369 376.621 322.007 376.522 321.601 376.522C321.204 376.522 320.842 376.625 320.516 376.832C320.198 377.031 319.948 377.301 319.765 377.643C319.582 377.977 319.491 378.366 319.491 378.812C319.491 379.241 319.582 379.63 319.765 379.98C319.948 380.322 320.198 380.592 320.516 380.791C320.834 380.99 321.196 381.089 321.601 381.089ZM329.519 382.162C328.898 382.162 328.346 382.015 327.861 381.721C327.376 381.427 326.995 381.025 326.716 380.517C326.438 380 326.299 379.424 326.299 378.788C326.299 378.144 326.434 377.571 326.704 377.071C326.983 376.57 327.356 376.176 327.825 375.89C328.302 375.596 328.835 375.449 329.423 375.449C329.9 375.449 330.321 375.536 330.687 375.711C331.061 375.878 331.375 376.109 331.629 376.403C331.891 376.689 332.09 377.019 332.225 377.393C332.368 377.758 332.44 378.14 332.44 378.537C332.44 378.625 332.432 378.724 332.416 378.835C332.408 378.939 332.396 379.038 332.38 379.133H327.11V378.18H331.736L331.212 378.609C331.283 378.195 331.244 377.826 331.093 377.5C330.941 377.174 330.719 376.916 330.425 376.725C330.131 376.534 329.797 376.439 329.423 376.439C329.049 376.439 328.708 376.534 328.398 376.725C328.088 376.916 327.845 377.19 327.67 377.548C327.503 377.897 327.436 378.315 327.468 378.8C327.436 379.269 327.507 379.682 327.682 380.04C327.865 380.39 328.119 380.664 328.445 380.863C328.779 381.053 329.141 381.149 329.53 381.149C329.96 381.149 330.321 381.049 330.616 380.851C330.91 380.652 331.148 380.397 331.331 380.087L332.261 380.564C332.134 380.859 331.935 381.129 331.665 381.375C331.403 381.614 331.089 381.805 330.723 381.948C330.365 382.091 329.964 382.162 329.519 382.162ZM336.807 382.162C336.203 382.162 335.659 382.015 335.174 381.721C334.697 381.427 334.319 381.025 334.041 380.517C333.763 380.008 333.624 379.44 333.624 378.812C333.624 378.168 333.763 377.595 334.041 377.094C334.319 376.586 334.697 376.184 335.174 375.89C335.659 375.596 336.203 375.449 336.807 375.449C337.34 375.449 337.813 375.564 338.226 375.795C338.64 376.017 338.966 376.319 339.204 376.701L339.025 376.975V372.992H340.146V382.019H339.061V380.648L339.204 380.839C338.982 381.26 338.656 381.586 338.226 381.816C337.805 382.047 337.332 382.162 336.807 382.162ZM336.903 381.089C337.308 381.089 337.67 380.99 337.988 380.791C338.306 380.592 338.556 380.322 338.739 379.98C338.93 379.63 339.025 379.241 339.025 378.812C339.025 378.374 338.93 377.985 338.739 377.643C338.556 377.293 338.306 377.019 337.988 376.82C337.67 376.621 337.308 376.522 336.903 376.522C336.505 376.522 336.144 376.625 335.818 376.832C335.5 377.031 335.249 377.301 335.066 377.643C334.884 377.977 334.792 378.366 334.792 378.812C334.792 379.241 334.884 379.63 335.066 379.98C335.249 380.322 335.5 380.592 335.818 380.791C336.136 380.99 336.497 381.089 336.903 381.089ZM343.924 384.404V375.592H345.009V376.975L344.866 376.701C345.104 376.319 345.43 376.017 345.844 375.795C346.257 375.564 346.73 375.449 347.263 375.449C347.867 375.449 348.407 375.596 348.884 375.89C349.369 376.184 349.751 376.586 350.029 377.094C350.307 377.595 350.446 378.168 350.446 378.812C350.446 379.44 350.307 380.008 350.029 380.517C349.751 381.025 349.369 381.427 348.884 381.721C348.407 382.015 347.863 382.162 347.251 382.162C346.734 382.162 346.261 382.047 345.832 381.816C345.41 381.586 345.084 381.26 344.854 380.839L345.033 380.648V384.404H343.924ZM347.167 381.089C347.573 381.089 347.934 380.99 348.252 380.791C348.57 380.592 348.817 380.322 348.992 379.98C349.174 379.63 349.266 379.241 349.266 378.812C349.266 378.366 349.174 377.977 348.992 377.643C348.817 377.301 348.57 377.031 348.252 376.832C347.934 376.625 347.573 376.522 347.167 376.522C346.762 376.522 346.396 376.621 346.07 376.82C345.752 377.019 345.498 377.293 345.307 377.643C345.124 377.985 345.033 378.374 345.033 378.812C345.033 379.241 345.124 379.63 345.307 379.98C345.498 380.322 345.752 380.592 346.07 380.791C346.396 380.99 346.762 381.089 347.167 381.089ZM354.178 382.162C353.717 382.162 353.3 382.055 352.926 381.84C352.56 381.626 352.274 381.328 352.067 380.946C351.869 380.556 351.769 380.111 351.769 379.61V375.592H352.878V379.491C352.878 379.809 352.942 380.087 353.069 380.326C353.204 380.564 353.387 380.751 353.618 380.886C353.856 381.021 354.126 381.089 354.428 381.089C354.73 381.089 354.997 381.021 355.227 380.886C355.466 380.751 355.649 380.556 355.776 380.302C355.911 380.048 355.979 379.746 355.979 379.396V375.592H357.099V382.019H356.014V380.767L356.193 380.874C356.042 381.28 355.784 381.598 355.418 381.828C355.06 382.051 354.647 382.162 354.178 382.162ZM358.817 382.019V375.592H359.903V376.772L359.783 376.606C359.934 376.24 360.165 375.97 360.475 375.795C360.785 375.612 361.163 375.52 361.608 375.52H362.001V376.57H361.441C360.988 376.57 360.622 376.713 360.344 376.999C360.066 377.277 359.926 377.675 359.926 378.191V382.019H358.817ZM362.986 384.404V375.592H364.071V376.975L363.928 376.701C364.167 376.319 364.493 376.017 364.906 375.795C365.32 375.564 365.792 375.449 366.325 375.449C366.929 375.449 367.47 375.596 367.947 375.89C368.432 376.184 368.813 376.586 369.092 377.094C369.37 377.595 369.509 378.168 369.509 378.812C369.509 379.44 369.37 380.008 369.092 380.517C368.813 381.025 368.432 381.427 367.947 381.721C367.47 382.015 366.925 382.162 366.313 382.162C365.796 382.162 365.323 382.047 364.894 381.816C364.473 381.586 364.147 381.26 363.916 380.839L364.095 380.648V384.404H362.986ZM366.23 381.089C366.635 381.089 366.997 380.99 367.315 380.791C367.633 380.592 367.879 380.322 368.054 379.98C368.237 379.63 368.328 379.241 368.328 378.812C368.328 378.366 368.237 377.977 368.054 377.643C367.879 377.301 367.633 377.031 367.315 376.832C366.997 376.625 366.635 376.522 366.23 376.522C365.824 376.522 365.459 376.621 365.133 376.82C364.815 377.019 364.56 377.293 364.37 377.643C364.187 377.985 364.095 378.374 364.095 378.812C364.095 379.241 364.187 379.63 364.37 379.98C364.56 380.322 364.815 380.592 365.133 380.791C365.459 380.99 365.824 381.089 366.23 381.089ZM374.016 382.162C373.396 382.162 372.835 382.019 372.334 381.733C371.834 381.439 371.436 381.037 371.142 380.529C370.848 380.02 370.701 379.444 370.701 378.8C370.701 378.156 370.844 377.583 371.13 377.083C371.424 376.582 371.822 376.184 372.322 375.89C372.823 375.596 373.388 375.449 374.016 375.449C374.636 375.449 375.196 375.596 375.697 375.89C376.198 376.176 376.591 376.57 376.877 377.071C377.172 377.571 377.319 378.148 377.319 378.8C377.319 379.451 377.168 380.032 376.866 380.541C376.563 381.041 376.162 381.439 375.661 381.733C375.168 382.019 374.62 382.162 374.016 382.162ZM374.016 381.089C374.413 381.089 374.771 380.99 375.089 380.791C375.415 380.592 375.669 380.318 375.852 379.968C376.043 379.618 376.138 379.229 376.138 378.8C376.138 378.362 376.043 377.977 375.852 377.643C375.669 377.301 375.415 377.031 375.089 376.832C374.771 376.625 374.413 376.522 374.016 376.522C373.61 376.522 373.245 376.625 372.919 376.832C372.601 377.031 372.346 377.301 372.155 377.643C371.965 377.977 371.869 378.362 371.869 378.8C371.869 379.229 371.965 379.618 372.155 379.968C372.346 380.318 372.601 380.592 372.919 380.791C373.245 380.99 373.61 381.089 374.016 381.089ZM381.066 382.162C380.423 382.162 379.862 382.003 379.385 381.685C378.908 381.367 378.57 380.938 378.372 380.397L379.254 379.968C379.437 380.35 379.687 380.652 380.005 380.874C380.323 381.097 380.677 381.208 381.066 381.208C381.416 381.208 381.706 381.125 381.937 380.958C382.167 380.791 382.283 380.572 382.283 380.302C382.283 380.111 382.227 379.96 382.116 379.849C382.012 379.73 381.885 379.638 381.734 379.575C381.583 379.503 381.444 379.451 381.317 379.42L380.351 379.145C379.771 378.978 379.345 378.74 379.075 378.43C378.813 378.12 378.682 377.758 378.682 377.345C378.682 376.963 378.777 376.633 378.968 376.355C379.167 376.069 379.433 375.846 379.767 375.687C380.109 375.528 380.49 375.449 380.911 375.449C381.476 375.449 381.981 375.592 382.426 375.878C382.879 376.164 383.201 376.566 383.392 377.083L382.485 377.5C382.342 377.166 382.128 376.904 381.842 376.713C381.555 376.514 381.233 376.415 380.876 376.415C380.55 376.415 380.291 376.498 380.101 376.665C379.91 376.824 379.814 377.027 379.814 377.273C379.814 377.456 379.862 377.607 379.957 377.726C380.053 377.838 380.168 377.925 380.303 377.989C380.438 378.044 380.57 378.092 380.697 378.132L381.746 378.442C382.271 378.593 382.676 378.827 382.962 379.145C383.257 379.463 383.404 379.845 383.404 380.29C383.404 380.648 383.304 380.97 383.106 381.256C382.907 381.542 382.633 381.765 382.283 381.924C381.933 382.083 381.528 382.162 381.066 382.162ZM387.813 382.162C387.192 382.162 386.64 382.015 386.155 381.721C385.67 381.427 385.289 381.025 385.01 380.517C384.732 380 384.593 379.424 384.593 378.788C384.593 378.144 384.728 377.571 384.998 377.071C385.277 376.57 385.65 376.176 386.119 375.89C386.596 375.596 387.129 375.449 387.717 375.449C388.194 375.449 388.615 375.536 388.981 375.711C389.355 375.878 389.669 376.109 389.923 376.403C390.185 376.689 390.384 377.019 390.519 377.393C390.662 377.758 390.734 378.14 390.734 378.537C390.734 378.625 390.726 378.724 390.71 378.835C390.702 378.939 390.69 379.038 390.674 379.133H385.404V378.18H390.03L389.506 378.609C389.577 378.195 389.538 377.826 389.387 377.5C389.235 377.174 389.013 376.916 388.719 376.725C388.425 376.534 388.091 376.439 387.717 376.439C387.344 376.439 387.002 376.534 386.692 376.725C386.382 376.916 386.139 377.19 385.964 377.548C385.797 377.897 385.73 378.315 385.762 378.8C385.73 379.269 385.801 379.682 385.976 380.04C386.159 380.39 386.413 380.664 386.739 380.863C387.073 381.053 387.435 381.149 387.824 381.149C388.254 381.149 388.615 381.049 388.91 380.851C389.204 380.652 389.442 380.397 389.625 380.087L390.555 380.564C390.428 380.859 390.229 381.129 389.959 381.375C389.697 381.614 389.383 381.805 389.017 381.948C388.659 382.091 388.258 382.162 387.813 382.162ZM397.294 382.162C396.674 382.162 396.113 382.019 395.612 381.733C395.112 381.439 394.714 381.037 394.42 380.529C394.126 380.02 393.979 379.444 393.979 378.8C393.979 378.156 394.122 377.583 394.408 377.083C394.702 376.582 395.1 376.184 395.6 375.89C396.101 375.596 396.666 375.449 397.294 375.449C397.914 375.449 398.474 375.596 398.975 375.89C399.476 376.176 399.869 376.57 400.155 377.071C400.45 377.571 400.597 378.148 400.597 378.8C400.597 379.451 400.446 380.032 400.144 380.541C399.841 381.041 399.44 381.439 398.939 381.733C398.446 382.019 397.898 382.162 397.294 382.162ZM397.294 381.089C397.691 381.089 398.049 380.99 398.367 380.791C398.693 380.592 398.947 380.318 399.13 379.968C399.321 379.618 399.416 379.229 399.416 378.8C399.416 378.362 399.321 377.977 399.13 377.643C398.947 377.301 398.693 377.031 398.367 376.832C398.049 376.625 397.691 376.522 397.294 376.522C396.888 376.522 396.523 376.625 396.197 376.832C395.879 377.031 395.624 377.301 395.433 377.643C395.243 377.977 395.147 378.362 395.147 378.8C395.147 379.229 395.243 379.618 395.433 379.968C395.624 380.318 395.879 380.592 396.197 380.791C396.523 380.99 396.888 381.089 397.294 381.089ZM402.525 382.019V376.653H401.297V375.592H402.525V375.139C402.525 374.678 402.624 374.288 402.823 373.97C403.03 373.652 403.3 373.41 403.634 373.243C403.976 373.076 404.353 372.992 404.767 372.992C404.854 372.992 404.949 373 405.053 373.016C405.164 373.024 405.255 373.036 405.327 373.052V374.042C405.263 374.026 405.188 374.018 405.1 374.018C405.013 374.01 404.945 374.006 404.898 374.006C404.532 374.006 404.23 374.093 403.991 374.268C403.761 374.443 403.646 374.733 403.646 375.139V375.592H405.172V376.653H403.646V382.019H402.525ZM256.41 401.091C255.782 401.091 255.297 400.912 254.955 400.554C254.621 400.196 254.454 399.692 254.454 399.04V395.653H253.286V394.592H253.524C253.811 394.592 254.037 394.505 254.204 394.33C254.371 394.155 254.454 393.924 254.454 393.638V393.113H255.563V394.592H257.006V395.653H255.563V399.004C255.563 399.219 255.595 399.405 255.659 399.564C255.73 399.723 255.846 399.851 256.005 399.946C256.164 400.033 256.374 400.077 256.637 400.077C256.692 400.077 256.76 400.073 256.839 400.065C256.927 400.057 257.006 400.049 257.078 400.041V401.019C256.974 401.043 256.859 401.059 256.732 401.067C256.605 401.083 256.497 401.091 256.41 401.091ZM258.526 401.019V391.992H259.635V395.844L259.433 395.737C259.592 395.331 259.846 395.017 260.196 394.795C260.554 394.564 260.971 394.449 261.448 394.449C261.909 394.449 262.318 394.552 262.676 394.759C263.042 394.966 263.328 395.252 263.535 395.617C263.749 395.983 263.857 396.397 263.857 396.858V401.019H262.736V397.215C262.736 396.858 262.668 396.556 262.533 396.309C262.406 396.063 262.227 395.872 261.996 395.737C261.766 395.594 261.5 395.522 261.197 395.522C260.903 395.522 260.637 395.594 260.398 395.737C260.16 395.872 259.973 396.067 259.838 396.321C259.703 396.567 259.635 396.866 259.635 397.215V401.019H258.526ZM268.401 401.162C267.781 401.162 267.228 401.015 266.743 400.721C266.258 400.427 265.877 400.025 265.598 399.517C265.32 399 265.181 398.424 265.181 397.788C265.181 397.144 265.316 396.571 265.587 396.071C265.865 395.57 266.238 395.176 266.707 394.89C267.184 394.596 267.717 394.449 268.305 394.449C268.782 394.449 269.204 394.536 269.569 394.711C269.943 394.878 270.257 395.109 270.511 395.403C270.774 395.689 270.972 396.019 271.107 396.393C271.251 396.758 271.322 397.14 271.322 397.537C271.322 397.625 271.314 397.724 271.298 397.835C271.29 397.939 271.278 398.038 271.262 398.133H265.992V397.18H270.619L270.094 397.609C270.165 397.195 270.126 396.826 269.975 396.5C269.824 396.174 269.601 395.916 269.307 395.725C269.013 395.534 268.679 395.439 268.305 395.439C267.932 395.439 267.59 395.534 267.28 395.725C266.97 395.916 266.727 396.19 266.552 396.548C266.385 396.897 266.318 397.315 266.35 397.8C266.318 398.269 266.389 398.682 266.564 399.04C266.747 399.39 267.002 399.664 267.327 399.863C267.661 400.053 268.023 400.149 268.413 400.149C268.842 400.149 269.204 400.049 269.498 399.851C269.792 399.652 270.03 399.397 270.213 399.087L271.143 399.564C271.016 399.859 270.817 400.129 270.547 400.375C270.285 400.614 269.971 400.805 269.605 400.948C269.247 401.091 268.846 401.162 268.401 401.162ZM274.829 401.019V391.992H275.938V401.019H274.829ZM280.711 401.162C280.091 401.162 279.531 401.019 279.03 400.733C278.529 400.439 278.132 400.037 277.838 399.529C277.544 399.02 277.396 398.444 277.396 397.8C277.396 397.156 277.54 396.583 277.826 396.083C278.12 395.582 278.517 395.184 279.018 394.89C279.519 394.596 280.083 394.449 280.711 394.449C281.332 394.449 281.892 394.596 282.393 394.89C282.894 395.176 283.287 395.57 283.573 396.071C283.867 396.571 284.014 397.148 284.014 397.8C284.014 398.451 283.863 399.032 283.561 399.541C283.259 400.041 282.858 400.439 282.357 400.733C281.864 401.019 281.316 401.162 280.711 401.162ZM280.711 400.089C281.109 400.089 281.467 399.99 281.785 399.791C282.111 399.592 282.365 399.318 282.548 398.968C282.739 398.618 282.834 398.229 282.834 397.8C282.834 397.362 282.739 396.977 282.548 396.643C282.365 396.301 282.111 396.031 281.785 395.832C281.467 395.625 281.109 395.522 280.711 395.522C280.306 395.522 279.94 395.625 279.614 395.832C279.296 396.031 279.042 396.301 278.851 396.643C278.66 396.977 278.565 397.362 278.565 397.8C278.565 398.229 278.66 398.618 278.851 398.968C279.042 399.318 279.296 399.592 279.614 399.791C279.94 399.99 280.306 400.089 280.711 400.089ZM287.345 401.162C286.924 401.162 286.55 401.087 286.224 400.936C285.906 400.777 285.656 400.562 285.473 400.292C285.29 400.014 285.199 399.696 285.199 399.338C285.199 398.996 285.27 398.69 285.413 398.42C285.564 398.141 285.795 397.907 286.105 397.716C286.423 397.525 286.82 397.39 287.297 397.311L289.682 396.917V397.847L287.548 398.205C287.134 398.277 286.832 398.408 286.641 398.599C286.459 398.789 286.367 399.024 286.367 399.302C286.367 399.564 286.47 399.783 286.677 399.958C286.892 400.133 287.158 400.22 287.476 400.22C287.882 400.22 288.231 400.137 288.525 399.97C288.828 399.795 289.062 399.56 289.229 399.266C289.404 398.972 289.491 398.646 289.491 398.288V396.655C289.491 396.305 289.36 396.023 289.098 395.808C288.843 395.586 288.506 395.474 288.084 395.474C287.719 395.474 287.393 395.57 287.106 395.761C286.828 395.943 286.622 396.19 286.486 396.5L285.52 395.999C285.64 395.705 285.831 395.443 286.093 395.212C286.355 394.974 286.661 394.787 287.011 394.652C287.361 394.516 287.726 394.449 288.108 394.449C288.601 394.449 289.034 394.544 289.408 394.735C289.781 394.918 290.072 395.176 290.278 395.51C290.493 395.836 290.6 396.218 290.6 396.655V401.019H289.515V399.803L289.718 399.874C289.583 400.129 289.4 400.351 289.169 400.542C288.939 400.733 288.669 400.884 288.358 400.995C288.048 401.107 287.711 401.162 287.345 401.162ZM292.32 401.019V394.592H293.405V395.844L293.226 395.737C293.385 395.331 293.639 395.017 293.989 394.795C294.347 394.564 294.764 394.449 295.241 394.449C295.702 394.449 296.112 394.552 296.469 394.759C296.835 394.966 297.121 395.252 297.328 395.617C297.543 395.983 297.65 396.397 297.65 396.858V401.019H296.529V397.215C296.529 396.858 296.465 396.556 296.338 396.309C296.211 396.063 296.028 395.872 295.79 395.737C295.559 395.594 295.293 395.522 294.991 395.522C294.689 395.522 294.418 395.594 294.18 395.737C293.949 395.872 293.766 396.067 293.631 396.321C293.496 396.567 293.429 396.866 293.429 397.215V401.019H292.32ZM299.69 401.019V399.588H300.846V401.019H299.69Z" fill="#747474"/>
</g>
</g>
<defs>
<filter id="filter0_d_504_1746" x="84.4887" y="52.3665" width="388.023" height="761.023" filterUnits="userSpaceOnUse" color-interpolation-filters="sRGB">
<feFlood flood-opacity="0" result="BackgroundImageFix"/>
<feColorMatrix in="SourceAlpha" type="matrix" values="0 0 0 0 0 0 0 0 0 0 0 0 0 0 0 0 0 0 127 0" result="hardAlpha"/>
<feOffset dy="3.87782"/>
<feGaussianBlur stdDeviation="7.75564"/>
<feColorMatrix type="matrix" values="0 0 0 0 0.0470588 0 0 0 0 0.0666667 0 0 0 0 0.258824 0 0 0 0.5 0"/>
<feBlend mode="normal" in2="BackgroundImageFix" result="effect1_dropShadow_504_1746"/>
<feBlend mode="normal" in="SourceGraphic" in2="effect1_dropShadow_504_1746" result="shape"/>
</filter>
<filter id="filter1_dd_504_1746" x="96.5931" y="62.2965" width="361.264" height="736.814" filterUnits="userSpaceOnUse" color-interpolation-filters="sRGB">
<feFlood flood-opacity="0" result="BackgroundImageFix"/>
<feColorMatrix in="SourceAlpha" type="matrix" values="0 0 0 0 0 0 0 0 0 0 0 0 0 0 0 0 0 0 127 0" result="hardAlpha"/>
<feOffset/>
<feGaussianBlur stdDeviation="0.851736"/>
<feColorMatrix type="matrix" values="0 0 0 0 0 0 0 0 0 0.0823529 0 0 0 0 0.25098 0 0 0 0.14 0"/>
<feBlend mode="normal" in2="BackgroundImageFix" result="effect1_dropShadow_504_1746"/>
<feColorMatrix in="SourceAlpha" type="matrix" values="0 0 0 0 0 0 0 0 0 0 0 0 0 0 0 0 0 0 127 0" result="hardAlpha"/>
<feOffset dy="1.70347"/>
<feGaussianBlur stdDeviation="1.70347"/>
<feColorMatrix type="matrix" values="0 0 0 0 0 0 0 0 0 0.0823529 0 0 0 0 0.25098 0 0 0 0.05 0"/>
<feBlend mode="normal" in2="effect1_dropShadow_504_1746" result="effect2_dropShadow_504_1746"/>
<feBlend mode="normal" in="SourceGraphic" in2="effect2_dropShadow_504_1746" result="shape"/>
</filter>
<clipPath id="clip0_504_1746">
<rect width="558" height="415" rx="14" fill="white"/>
</clipPath>
</defs>
</svg>
