<svg width="158" height="36" viewBox="0 0 158 36" fill="none" xmlns="http://www.w3.org/2000/svg">
<path d="M18 36C27.9416 36 36 27.9416 36 18C36 8.05838 27.9416 0 18 0C8.05838 0 0 8.05838 0 18C0 27.9416 8.05838 36 18 36ZM16.6691 7.22363H18.9191V17.2204H28.917V19.4704H16.6691V7.22363ZM9.96525 7.71525H12.2153V23.7836H28.2836V26.0336H9.96525V7.71525Z" fill="#E6767A"/>
<path d="M62.6123 9.8069H57.0795V24.6483H53.5151V9.8069H48V6.93793H62.6123V9.8069ZM68.021 24.6483H64.6162V14.2391C64.6162 13.5034 64.6043 12.8843 64.5807 12.3816C64.5689 11.8789 64.5452 11.4375 64.5098 11.0575H67.7727C67.7963 11.2046 67.8259 11.6644 67.8614 12.4368C67.9086 13.1969 67.9323 13.7057 67.9323 13.9632H67.9678C68.2988 13.0069 68.5943 12.3326 68.8544 11.9402C69.1145 11.5479 69.4219 11.2598 69.7766 11.0759C70.1312 10.8797 70.5746 10.7816 71.1066 10.7816C71.544 10.7816 71.8987 10.849 72.1706 10.9839V13.9264C71.6149 13.8038 71.1302 13.7425 70.7164 13.7425C69.8652 13.7425 69.2032 14.0981 68.7303 14.8092C68.2574 15.5203 68.021 16.5747 68.021 17.9724V24.6483ZM77.3132 24.9057C76.0364 24.9057 75.0434 24.5502 74.334 23.8391C73.6247 23.1157 73.27 22.1042 73.27 20.8046C73.27 19.3946 73.7134 18.3218 74.6 17.5862C75.4867 16.8506 76.7694 16.4766 78.4482 16.4644L81.2678 16.4092V15.7103C81.2678 14.8276 81.12 14.1716 80.8244 13.7425C80.5289 13.3011 80.0383 13.0805 79.3526 13.0805C78.726 13.0805 78.2649 13.2337 77.9694 13.5402C77.6738 13.8345 77.4906 14.3249 77.4196 15.0115L73.873 14.8276C74.0858 13.5034 74.6651 12.5042 75.6108 11.8299C76.5684 11.1433 77.863 10.8 79.4944 10.8C81.1614 10.8 82.4382 11.223 83.3248 12.069C84.2233 12.9149 84.6726 14.1165 84.6726 15.6736V20.6391C84.6726 21.3992 84.7553 21.9203 84.9208 22.2023C85.0864 22.4966 85.3642 22.6437 85.7543 22.6437C86.0144 22.6437 86.2686 22.6192 86.5168 22.5701V24.4828C86.304 24.5318 86.1208 24.5747 85.9671 24.6115C85.8016 24.6605 85.6361 24.6973 85.4706 24.7218C85.3169 24.7464 85.1455 24.7648 84.9563 24.777C84.779 24.8015 84.5662 24.8138 84.3179 24.8138C83.4667 24.8138 82.8342 24.5931 82.4204 24.1517C82.0185 23.7103 81.7761 23.0667 81.6934 22.2207H81.6224C80.6648 24.0107 79.2284 24.9057 77.3132 24.9057ZM81.2678 19.0575V18.3586L79.5299 18.377C78.7378 18.4138 78.1763 18.5057 77.8452 18.6529C77.5142 18.8 77.26 19.0268 77.0827 19.3333C76.9054 19.6276 76.8167 20.0261 76.8167 20.5287C76.8167 21.1785 76.9645 21.6567 77.26 21.9632C77.5438 22.282 77.9221 22.4414 78.395 22.4414C78.927 22.4414 79.4176 22.2881 79.8668 21.9816C80.3043 21.6874 80.6471 21.2705 80.8954 20.731C81.1436 20.2038 81.2678 19.646 81.2678 19.0575ZM93.557 24.9057C91.5709 24.9057 90.034 24.2927 88.9463 23.0667C87.8587 21.8406 87.3148 20.1303 87.3148 17.9356C87.3148 15.6797 87.8646 13.9264 88.9641 12.6759C90.0517 11.4253 91.5945 10.8 93.5925 10.8C95.1412 10.8 96.418 11.2046 97.4229 12.0138C98.4396 12.8107 99.078 13.9203 99.3381 15.3425L95.8978 15.508C95.8032 14.8215 95.5609 14.2697 95.1707 13.8529C94.7806 13.436 94.2309 13.2276 93.5215 13.2276C91.7718 13.2276 90.897 14.7479 90.897 17.7885C90.897 20.9272 91.7896 22.4966 93.5747 22.4966C94.2249 22.4966 94.7688 22.282 95.2062 21.8529C95.6436 21.436 95.9096 20.8046 96.0042 19.9586L99.4267 20.1241C99.3085 21.0559 98.9893 21.8897 98.4691 22.6253C97.949 23.3487 97.2633 23.9126 96.4121 24.3172C95.5609 24.7096 94.6092 24.9057 93.557 24.9057ZM113.986 24.6483H110.262L106.768 18.4874L105.296 19.554V24.6483H101.892V6H105.296V16.6851L109.978 11.0575H113.631L109.038 16.354L113.986 24.6483ZM129.68 12.5471C129.68 13.6874 129.426 14.705 128.917 15.6C128.421 16.495 127.706 17.1877 126.772 17.6782C125.838 18.1686 124.726 18.4138 123.438 18.4138H119.199V24.6483H115.617V6.93793H123.296C125.341 6.93793 126.913 7.42835 128.013 8.4092C129.124 9.37778 129.68 10.7571 129.68 12.5471ZM126.08 12.6207C126.08 10.7571 125.022 9.82529 122.906 9.82529H119.199V15.5632H122.994C123.987 15.5632 124.75 15.3119 125.282 14.8092C125.814 14.2943 126.08 13.5648 126.08 12.6207ZM135.284 24.9057C134.019 24.9057 133.031 24.5502 132.322 23.8391C131.613 23.1157 131.258 22.1042 131.258 20.8046C131.258 19.3946 131.696 18.3218 132.57 17.5862C133.457 16.8506 134.746 16.4766 136.436 16.4644L139.256 16.4092V15.7103C139.256 14.8276 139.108 14.1716 138.813 13.7425C138.505 13.3011 138.015 13.0805 137.341 13.0805C136.702 13.0805 136.241 13.2337 135.957 13.5402C135.662 13.8345 135.473 14.3249 135.39 15.0115L131.843 14.8276C132.068 13.5034 132.653 12.5042 133.599 11.8299C134.545 11.1433 135.839 10.8 137.483 10.8C139.138 10.8 140.414 11.223 141.313 12.069C142.211 12.9149 142.661 14.1165 142.661 15.6736V20.6391C142.661 21.3992 142.743 21.9203 142.909 22.2023C143.074 22.4966 143.352 22.6437 143.742 22.6437C144.002 22.6437 144.251 22.6192 144.487 22.5701V24.4828C144.286 24.5318 144.103 24.5747 143.937 24.6115C143.784 24.6605 143.624 24.6973 143.459 24.7218C143.293 24.7464 143.122 24.7648 142.944 24.777C142.767 24.8015 142.554 24.8138 142.306 24.8138C141.455 24.8138 140.822 24.5931 140.409 24.1517C140.007 23.7103 139.764 23.0667 139.681 22.2207H139.611C138.653 24.0107 137.211 24.9057 135.284 24.9057ZM139.256 19.0575V18.3586L137.5 18.377C136.708 18.4138 136.147 18.5057 135.816 18.6529C135.485 18.8 135.236 19.0268 135.071 19.3333C134.893 19.6276 134.805 20.0261 134.805 20.5287C134.805 21.1785 134.947 21.6567 135.23 21.9632C135.514 22.282 135.898 22.4414 136.383 22.4414C136.915 22.4414 137.4 22.2881 137.837 21.9816C138.275 21.6874 138.623 21.2705 138.883 20.731C139.132 20.2038 139.256 19.646 139.256 19.0575ZM147.768 30C146.952 30 146.237 29.9448 145.622 29.8345V27.3149C146.048 27.3885 146.438 27.4253 146.793 27.4253C147.277 27.4253 147.679 27.3456 147.998 27.1862C148.318 27.0268 148.607 26.7632 148.867 26.3954C149.116 26.0276 149.399 25.4023 149.719 24.5195L144.523 11.0575H148.123L150.18 17.4207C150.511 18.3402 150.918 19.7441 151.403 21.6322L151.722 20.4368L152.503 17.4759L154.436 11.0575H158L152.822 25.3655C152.124 27.1188 151.403 28.3264 150.658 28.9885C149.914 29.6628 148.95 30 147.768 30Z" fill="white"/>
</svg>
