<svg width="24" height="24" viewBox="0 0 24 24" fill="none" xmlns="http://www.w3.org/2000/svg">
<g clip-path="url(#clip0_1015_6672)">
<path d="M21 3V24H3V3H9C9 2.58594 9.07812 2.19922 9.23438 1.83984C9.39062 1.48047 9.60547 1.16016 9.87891 0.878906C10.1523 0.597656 10.4688 0.382812 10.8281 0.234375C11.1875 0.0859375 11.5781 0.0078125 12 0C12.4141 0 12.8008 0.078125 13.1602 0.234375C13.5195 0.390625 13.8398 0.605469 14.1211 0.878906C14.4023 1.15234 14.6172 1.46875 14.7656 1.82812C14.9141 2.1875 14.9922 2.57812 15 3H21ZM7.5 6H16.5V4.5H13.5V3C13.5 2.78906 13.4609 2.59375 13.3828 2.41406C13.3047 2.23438 13.1992 2.07812 13.0664 1.94531C12.9336 1.8125 12.7734 1.70312 12.5859 1.61719C12.3984 1.53125 12.2031 1.49219 12 1.5C11.7891 1.5 11.5938 1.53906 11.4141 1.61719C11.2344 1.69531 11.0781 1.80078 10.9453 1.93359C10.8125 2.06641 10.7031 2.22656 10.6172 2.41406C10.5312 2.60156 10.4922 2.79688 10.5 3V4.5H7.5V6ZM19.5 4.5H18V7.5H6V4.5H4.5V22.5H19.5V4.5ZM6 10.5H12V12H6V10.5ZM6 15H12V16.5H6V15ZM6 19.5H12V21H6V19.5ZM16.7227 8.47266L17.7773 9.52734L15 12.3047L12.9727 10.2773L14.0273 9.22266L15 10.1953L16.7227 8.47266ZM16.7227 12.9727L17.7773 14.0273L15 16.8047L12.9727 14.7773L14.0273 13.7227L15 14.6953L16.7227 12.9727ZM16.7227 17.4727L17.7773 18.5273L15 21.3047L12.9727 19.2773L14.0273 18.2227L15 19.1953L16.7227 17.4727Z" fill="#3E214F"/>
</g>
<defs>
<clipPath id="clip0_1015_6672">
<rect width="24" height="24" fill="white"/>
</clipPath>
</defs>
</svg>
