<svg width="445" height="284" viewBox="0 0 445 284" fill="none" xmlns="http://www.w3.org/2000/svg">
<path d="M92.5312 69.7188C91.9062 69.7188 91.3594 69.6823 90.8906 69.6094C90.4115 69.5469 90.0052 69.4688 89.6719 69.375V65.3438C90.0052 65.4167 90.3646 65.4844 90.75 65.5469C91.125 65.6198 91.526 65.6562 91.9531 65.6562C92.5156 65.6562 93.0208 65.5469 93.4688 65.3281C93.9167 65.1198 94.2708 64.7188 94.5312 64.125C94.7917 63.5312 94.9219 62.6771 94.9219 61.5625V40.1562H99.7656V61.5312C99.7656 63.4896 99.4583 65.0677 98.8438 66.2656C98.2396 67.474 97.3906 68.349 96.2969 68.8906C95.2135 69.4427 93.9583 69.7188 92.5312 69.7188ZM121.016 54.2344C121.016 55.6927 120.818 56.9844 120.422 58.1094C120.036 59.2344 119.469 60.1875 118.719 60.9688C117.979 61.7396 117.083 62.3229 116.031 62.7188C114.99 63.1146 113.812 63.3125 112.5 63.3125C111.271 63.3125 110.141 63.1146 109.109 62.7188C108.089 62.3229 107.198 61.7396 106.438 60.9688C105.688 60.1875 105.104 59.2344 104.688 58.1094C104.281 56.9844 104.078 55.6927 104.078 54.2344C104.078 52.2969 104.422 50.6562 105.109 49.3125C105.797 47.9688 106.776 46.9479 108.047 46.25C109.318 45.5521 110.833 45.2031 112.594 45.2031C114.229 45.2031 115.677 45.5521 116.938 46.25C118.208 46.9479 119.203 47.9688 119.922 49.3125C120.651 50.6562 121.016 52.2969 121.016 54.2344ZM108.938 54.2344C108.938 55.3802 109.062 56.3438 109.312 57.125C109.562 57.9062 109.953 58.4948 110.484 58.8906C111.016 59.2865 111.708 59.4844 112.562 59.4844C113.406 59.4844 114.089 59.2865 114.609 58.8906C115.141 58.4948 115.526 57.9062 115.766 57.125C116.016 56.3438 116.141 55.3802 116.141 54.2344C116.141 53.0781 116.016 52.1198 115.766 51.3594C115.526 50.5885 115.141 50.0104 114.609 49.625C114.078 49.2396 113.385 49.0469 112.531 49.0469C111.271 49.0469 110.354 49.4792 109.781 50.3438C109.219 51.2083 108.938 52.5052 108.938 54.2344ZM129.719 45.5312V63H124.953V45.5312H129.719ZM127.344 38.6875C128.052 38.6875 128.661 38.8542 129.172 39.1875C129.682 39.5104 129.938 40.1198 129.938 41.0156C129.938 41.901 129.682 42.5156 129.172 42.8594C128.661 43.1927 128.052 43.3594 127.344 43.3594C126.625 43.3594 126.01 43.1927 125.5 42.8594C125 42.5156 124.75 41.901 124.75 41.0156C124.75 40.1198 125 39.5104 125.5 39.1875C126.01 38.8542 126.625 38.6875 127.344 38.6875ZM144.656 45.2031C146.521 45.2031 148.021 45.7135 149.156 46.7344C150.292 47.7448 150.859 49.3698 150.859 51.6094V63H146.094V52.7969C146.094 51.5469 145.865 50.6042 145.406 49.9688C144.958 49.3333 144.25 49.0156 143.281 49.0156C141.823 49.0156 140.828 49.5104 140.297 50.5C139.766 51.4896 139.5 52.9167 139.5 54.7812V63H134.734V45.5312H138.375L139.016 47.7656H139.281C139.656 47.1615 140.12 46.6719 140.672 46.2969C141.234 45.9219 141.854 45.6458 142.531 45.4688C143.219 45.2917 143.927 45.2031 144.656 45.2031ZM179.953 54.2344C179.953 55.6927 179.755 56.9844 179.359 58.1094C178.974 59.2344 178.406 60.1875 177.656 60.9688C176.917 61.7396 176.021 62.3229 174.969 62.7188C173.927 63.1146 172.75 63.3125 171.438 63.3125C170.208 63.3125 169.078 63.1146 168.047 62.7188C167.026 62.3229 166.135 61.7396 165.375 60.9688C164.625 60.1875 164.042 59.2344 163.625 58.1094C163.219 56.9844 163.016 55.6927 163.016 54.2344C163.016 52.2969 163.359 50.6562 164.047 49.3125C164.734 47.9688 165.714 46.9479 166.984 46.25C168.255 45.5521 169.771 45.2031 171.531 45.2031C173.167 45.2031 174.615 45.5521 175.875 46.25C177.146 46.9479 178.141 47.9688 178.859 49.3125C179.589 50.6562 179.953 52.2969 179.953 54.2344ZM167.875 54.2344C167.875 55.3802 168 56.3438 168.25 57.125C168.5 57.9062 168.891 58.4948 169.422 58.8906C169.953 59.2865 170.646 59.4844 171.5 59.4844C172.344 59.4844 173.026 59.2865 173.547 58.8906C174.078 58.4948 174.464 57.9062 174.703 57.125C174.953 56.3438 175.078 55.3802 175.078 54.2344C175.078 53.0781 174.953 52.1198 174.703 51.3594C174.464 50.5885 174.078 50.0104 173.547 49.625C173.016 49.2396 172.323 49.0469 171.469 49.0469C170.208 49.0469 169.292 49.4792 168.719 50.3438C168.156 51.2083 167.875 52.5052 167.875 54.2344ZM199.922 45.5312V63H196.266L195.625 60.7656H195.375C195 61.3594 194.531 61.8438 193.969 62.2188C193.406 62.5938 192.786 62.8698 192.109 63.0469C191.432 63.224 190.729 63.3125 190 63.3125C188.75 63.3125 187.661 63.0938 186.734 62.6562C185.807 62.2083 185.083 61.5156 184.562 60.5781C184.052 59.6406 183.797 58.4219 183.797 56.9219V45.5312H188.562V55.7344C188.562 56.9844 188.786 57.9271 189.234 58.5625C189.682 59.1979 190.396 59.5156 191.375 59.5156C192.344 59.5156 193.104 59.2969 193.656 58.8594C194.208 58.4115 194.594 57.7604 194.812 56.9062C195.042 56.0417 195.156 54.9896 195.156 53.75V45.5312H199.922ZM214.672 45.2031C214.911 45.2031 215.188 45.2188 215.5 45.25C215.823 45.2708 216.083 45.3021 216.281 45.3438L215.922 49.8125C215.766 49.7604 215.542 49.724 215.25 49.7031C214.969 49.6719 214.724 49.6562 214.516 49.6562C213.901 49.6562 213.302 49.7344 212.719 49.8906C212.146 50.0469 211.63 50.3021 211.172 50.6562C210.714 51 210.349 51.4583 210.078 52.0312C209.818 52.5938 209.688 53.2865 209.688 54.1094V63H204.922V45.5312H208.531L209.234 48.4688H209.469C209.812 47.875 210.24 47.3333 210.75 46.8438C211.271 46.3438 211.859 45.9479 212.516 45.6562C213.182 45.3542 213.901 45.2031 214.672 45.2031ZM88.5469 107H82.3906L72.4531 89.7188H72.3125C72.3542 90.4375 72.3906 91.1615 72.4219 91.8906C72.4531 92.6198 72.4844 93.349 72.5156 94.0781C72.5469 94.7969 72.5781 95.5208 72.6094 96.25V107H68.2812V84.1562H74.3906L84.3125 101.266H84.4219C84.401 100.557 84.375 99.8542 84.3438 99.1562C84.3125 98.4583 84.2812 97.7604 84.25 97.0625C84.2292 96.3646 84.2083 95.6667 84.1875 94.9688V84.1562H88.5469V107ZM101.141 89.2031C102.755 89.2031 104.146 89.5156 105.312 90.1406C106.479 90.7552 107.38 91.651 108.016 92.8281C108.651 94.0052 108.969 95.4427 108.969 97.1406V99.4531H97.7031C97.7552 100.797 98.1562 101.854 98.9062 102.625C99.6667 103.385 100.719 103.766 102.062 103.766C103.177 103.766 104.198 103.651 105.125 103.422C106.052 103.193 107.005 102.849 107.984 102.391V106.078C107.12 106.505 106.214 106.818 105.266 107.016C104.328 107.214 103.188 107.312 101.844 107.312C100.094 107.312 98.5417 106.99 97.1875 106.344C95.8438 105.698 94.7865 104.714 94.0156 103.391C93.2552 102.068 92.875 100.401 92.875 98.3906C92.875 96.349 93.2188 94.651 93.9062 93.2969C94.6042 91.9323 95.5729 90.9115 96.8125 90.2344C98.0521 89.5469 99.4948 89.2031 101.141 89.2031ZM101.172 92.5938C100.245 92.5938 99.474 92.8906 98.8594 93.4844C98.2552 94.0781 97.9062 95.0104 97.8125 96.2812H104.5C104.49 95.5729 104.359 94.9427 104.109 94.3906C103.87 93.8385 103.505 93.401 103.016 93.0781C102.536 92.7552 101.922 92.5938 101.172 92.5938ZM127.203 107L125.859 100.891C125.786 100.526 125.667 99.9896 125.5 99.2812C125.333 98.5625 125.151 97.7969 124.953 96.9844C124.766 96.1615 124.589 95.401 124.422 94.7031C124.266 94.0052 124.151 93.4948 124.078 93.1719H123.938C123.865 93.4948 123.75 94.0052 123.594 94.7031C123.438 95.401 123.26 96.1615 123.062 96.9844C122.875 97.8073 122.698 98.5833 122.531 99.3125C122.365 100.031 122.24 100.578 122.156 100.953L120.75 107H115.625L110.656 89.5312H115.406L117.422 97.2656C117.557 97.8073 117.688 98.4531 117.812 99.2031C117.938 99.9427 118.047 100.661 118.141 101.359C118.245 102.047 118.323 102.594 118.375 103H118.5C118.521 102.698 118.562 102.297 118.625 101.797C118.698 101.297 118.776 100.781 118.859 100.25C118.953 99.7083 119.036 99.224 119.109 98.7969C119.193 98.3594 119.255 98.0625 119.297 97.9062L121.453 89.5312H126.703L128.75 97.9062C128.823 98.2083 128.917 98.6875 129.031 99.3438C129.156 100 129.266 100.677 129.359 101.375C129.453 102.062 129.505 102.604 129.516 103H129.641C129.682 102.646 129.755 102.12 129.859 101.422C129.964 100.724 130.083 99.9948 130.219 99.2344C130.365 98.4635 130.51 97.8073 130.656 97.2656L132.75 89.5312H137.422L132.391 107H127.203ZM152.438 101.812C152.438 103 152.156 104.005 151.594 104.828C151.042 105.641 150.214 106.26 149.109 106.688C148.005 107.104 146.63 107.312 144.984 107.312C143.766 107.312 142.719 107.234 141.844 107.078C140.979 106.922 140.104 106.661 139.219 106.297V102.359C140.167 102.786 141.182 103.141 142.266 103.422C143.359 103.693 144.318 103.828 145.141 103.828C146.068 103.828 146.729 103.693 147.125 103.422C147.531 103.141 147.734 102.776 147.734 102.328C147.734 102.036 147.651 101.776 147.484 101.547C147.328 101.307 146.984 101.042 146.453 100.75C145.922 100.448 145.089 100.057 143.953 99.5781C142.859 99.1198 141.958 98.6562 141.25 98.1875C140.552 97.7188 140.031 97.1667 139.688 96.5312C139.354 95.8854 139.188 95.0677 139.188 94.0781C139.188 92.4635 139.812 91.25 141.062 90.4375C142.323 89.6146 144.005 89.2031 146.109 89.2031C147.193 89.2031 148.224 89.3125 149.203 89.5312C150.193 89.75 151.208 90.099 152.25 90.5781L150.812 94.0156C149.948 93.6406 149.13 93.3333 148.359 93.0938C147.599 92.8542 146.823 92.7344 146.031 92.7344C145.333 92.7344 144.807 92.8281 144.453 93.0156C144.099 93.2031 143.922 93.4896 143.922 93.875C143.922 94.1562 144.01 94.4062 144.188 94.625C144.375 94.8438 144.729 95.0885 145.25 95.3594C145.781 95.6198 146.557 95.9583 147.578 96.375C148.568 96.7812 149.427 97.2083 150.156 97.6562C150.885 98.0938 151.448 98.6406 151.844 99.2969C152.24 99.9427 152.438 100.781 152.438 101.812ZM160.922 107H156.156V82.6875H160.922V107ZM173.141 89.2031C174.755 89.2031 176.146 89.5156 177.312 90.1406C178.479 90.7552 179.38 91.651 180.016 92.8281C180.651 94.0052 180.969 95.4427 180.969 97.1406V99.4531H169.703C169.755 100.797 170.156 101.854 170.906 102.625C171.667 103.385 172.719 103.766 174.062 103.766C175.177 103.766 176.198 103.651 177.125 103.422C178.052 103.193 179.005 102.849 179.984 102.391V106.078C179.12 106.505 178.214 106.818 177.266 107.016C176.328 107.214 175.188 107.312 173.844 107.312C172.094 107.312 170.542 106.99 169.188 106.344C167.844 105.698 166.786 104.714 166.016 103.391C165.255 102.068 164.875 100.401 164.875 98.3906C164.875 96.349 165.219 94.651 165.906 93.2969C166.604 91.9323 167.573 90.9115 168.812 90.2344C170.052 89.5469 171.495 89.2031 173.141 89.2031ZM173.172 92.5938C172.245 92.5938 171.474 92.8906 170.859 93.4844C170.255 94.0781 169.906 95.0104 169.812 96.2812H176.5C176.49 95.5729 176.359 94.9427 176.109 94.3906C175.87 93.8385 175.505 93.401 175.016 93.0781C174.536 92.7552 173.922 92.5938 173.172 92.5938ZM192.203 103.516C192.724 103.516 193.229 103.464 193.719 103.359C194.219 103.255 194.714 103.125 195.203 102.969V106.516C194.693 106.745 194.057 106.932 193.297 107.078C192.547 107.234 191.724 107.312 190.828 107.312C189.786 107.312 188.849 107.146 188.016 106.812C187.193 106.469 186.542 105.88 186.062 105.047C185.594 104.203 185.359 103.031 185.359 101.531V93.1094H183.078V91.0938L185.703 89.5L187.078 85.8125H190.125V89.5312H195.016V93.1094H190.125V101.531C190.125 102.198 190.312 102.698 190.688 103.031C191.073 103.354 191.578 103.516 192.203 103.516ZM206.109 103.516C206.63 103.516 207.135 103.464 207.625 103.359C208.125 103.255 208.62 103.125 209.109 102.969V106.516C208.599 106.745 207.964 106.932 207.203 107.078C206.453 107.234 205.63 107.312 204.734 107.312C203.693 107.312 202.755 107.146 201.922 106.812C201.099 106.469 200.448 105.88 199.969 105.047C199.5 104.203 199.266 103.031 199.266 101.531V93.1094H196.984V91.0938L199.609 89.5L200.984 85.8125H204.031V89.5312H208.922V93.1094H204.031V101.531C204.031 102.198 204.219 102.698 204.594 103.031C204.979 103.354 205.484 103.516 206.109 103.516ZM219.859 89.2031C221.474 89.2031 222.865 89.5156 224.031 90.1406C225.198 90.7552 226.099 91.651 226.734 92.8281C227.37 94.0052 227.688 95.4427 227.688 97.1406V99.4531H216.422C216.474 100.797 216.875 101.854 217.625 102.625C218.385 103.385 219.438 103.766 220.781 103.766C221.896 103.766 222.917 103.651 223.844 103.422C224.771 103.193 225.724 102.849 226.703 102.391V106.078C225.839 106.505 224.932 106.818 223.984 107.016C223.047 107.214 221.906 107.312 220.562 107.312C218.812 107.312 217.26 106.99 215.906 106.344C214.562 105.698 213.505 104.714 212.734 103.391C211.974 102.068 211.594 100.401 211.594 98.3906C211.594 96.349 211.938 94.651 212.625 93.2969C213.323 91.9323 214.292 90.9115 215.531 90.2344C216.771 89.5469 218.214 89.2031 219.859 89.2031ZM219.891 92.5938C218.964 92.5938 218.193 92.8906 217.578 93.4844C216.974 94.0781 216.625 95.0104 216.531 96.2812H223.219C223.208 95.5729 223.078 94.9427 222.828 94.3906C222.589 93.8385 222.224 93.401 221.734 93.0781C221.255 92.7552 220.641 92.5938 219.891 92.5938ZM241.312 89.2031C241.552 89.2031 241.828 89.2188 242.141 89.25C242.464 89.2708 242.724 89.3021 242.922 89.3438L242.562 93.8125C242.406 93.7604 242.182 93.724 241.891 93.7031C241.609 93.6719 241.365 93.6562 241.156 93.6562C240.542 93.6562 239.943 93.7344 239.359 93.8906C238.786 94.0469 238.271 94.3021 237.812 94.6562C237.354 95 236.99 95.4583 236.719 96.0312C236.458 96.5938 236.328 97.2865 236.328 98.1094V107H231.562V89.5312H235.172L235.875 92.4688H236.109C236.453 91.875 236.88 91.3333 237.391 90.8438C237.911 90.3438 238.5 89.9479 239.156 89.6562C239.823 89.3542 240.542 89.2031 241.312 89.2031Z" fill="white"/>
<path d="M443 241.206C391.095 246.386 285.287 249.728 277.302 221.656C267.32 186.566 346.676 181.426 344.679 212.633C342.683 243.84 288.782 318.404 232.384 260.756C187.267 214.638 171.329 175.036 169 161" stroke="white" stroke-width="4" stroke-linecap="round"/>
<ellipse cx="154" cy="76.5" rx="152" ry="74.5" stroke="white" stroke-width="4" stroke-linecap="round"/>
</svg>
