<svg width="62" height="62" viewBox="0 0 62 62" fill="none" xmlns="http://www.w3.org/2000/svg">
<path d="M14.7417 18.9901L19.8792 14.2561C20.0606 14.0879 20.2736 13.9575 20.5057 13.8724C20.7378 13.7873 20.9845 13.7493 21.2315 13.7604C21.4784 13.7716 21.7207 13.8318 21.9442 13.9375C22.1677 14.0432 22.3681 14.1923 22.5336 14.3762L26.0785 18.304C25.9072 18.527 25.3764 19.0416 24.6914 19.8992L22.585 22.6606C22.5295 22.7285 22.4835 22.8035 22.448 22.8836C21.8632 23.9162 21.4989 25.0592 21.378 26.2402C21.2571 27.4212 21.3824 28.6145 21.7459 29.7444C22.5792 32.0264 23.9001 34.0986 25.6161 35.8163C27.196 37.6722 29.199 39.1195 31.4558 40.0357C32.5191 40.457 33.6676 40.6177 34.8055 40.5043C35.9435 40.3909 37.0379 40.0068 37.9975 39.3839L40.9088 37.48C41.8164 36.8797 42.3815 36.3823 42.6213 36.2279L46.1661 40.0871C46.3373 40.2666 46.4707 40.4787 46.5584 40.7107C46.6461 40.9428 46.6864 41.1902 46.6768 41.4382C46.6672 41.6862 46.6079 41.9297 46.5026 42.1543C46.3972 42.3789 46.2479 42.58 46.0634 42.7457L40.9259 47.4968C39.4703 48.8175 36.4734 48.9547 33.1683 47.9599C30.0469 47.0305 27.1931 45.3661 24.8455 43.1059L17.7557 35.4732C15.7043 32.9388 14.2839 29.9523 13.6115 26.76C12.9094 23.381 13.2861 20.3966 14.7417 18.9901ZM12.5497 16.6917C9.74122 19.2645 9.62135 23.5525 10.4433 27.4289C11.1936 31.2213 12.8903 34.7618 15.3754 37.7201L22.4137 45.4043C25.1315 48.126 28.4968 50.1094 32.1921 51.1673C36.0281 52.3337 40.2409 52.5567 43.0494 49.9667L48.1869 45.2327C49.1807 44.3107 49.7707 43.0328 49.8284 41.6772C49.8861 40.3216 49.4069 38.998 48.4951 37.9946L45.0188 34.1354C44.5744 33.5979 43.977 33.209 43.3063 33.0205C42.6432 32.8915 41.9561 32.9881 41.354 33.2949C40.5856 33.7451 39.8579 34.2616 39.1791 34.8386L36.285 36.7596C35.7545 37.1209 35.1392 37.3377 34.4997 37.3888C33.8602 37.4399 33.2184 37.3236 32.6374 37.0512C30.8656 36.2745 29.2955 35.1009 28.0479 33.6208C26.668 32.2298 25.5946 30.5645 24.8969 28.7325C24.6384 28.0271 24.5411 27.2726 24.6123 26.5246C24.6834 25.7765 24.9211 25.054 25.3079 24.4101L27.3457 21.8545C27.9723 21.2169 28.5451 20.5285 29.0582 19.7962C29.4112 19.2218 29.562 18.5455 29.4864 17.8752C29.3665 17.173 29.0313 16.5255 28.5274 16.0228L24.914 12.2493C23.9934 11.254 22.7175 10.6631 21.3641 10.6053C20.0106 10.5474 18.6891 11.0274 17.6872 11.9406L12.5497 16.6917Z" fill="#3E214F"/>
<path d="M15.0857 14.3072C14.8017 14.6224 14.6445 15.0319 14.6445 15.4564C14.6445 15.881 14.8017 16.2905 15.0857 16.6056L22.1755 24.3412C22.4794 24.6377 22.8824 24.8106 23.3064 24.8264C23.7304 24.8422 24.1451 24.6999 24.4703 24.427C24.6268 24.2841 24.7537 24.1117 24.8437 23.9196C24.9336 23.7276 24.9848 23.5196 24.9943 23.3077C25.0039 23.0958 24.9716 22.8841 24.8993 22.6847C24.827 22.4853 24.7161 22.3021 24.573 22.1457L17.3976 14.4102C17.2545 14.2482 17.0804 14.1167 16.8856 14.0235C16.6907 13.9304 16.4792 13.8774 16.2635 13.8678C16.0478 13.8582 15.8323 13.8922 15.63 13.9677C15.4277 14.0431 15.2426 14.1586 15.0857 14.3072V14.3072Z" fill="#3E214F"/>
<path d="M36.3709 37.4801C36.0869 37.7953 35.9297 38.2047 35.9297 38.6293C35.9297 39.0538 36.0869 39.4633 36.3709 39.7785L43.4778 47.514C43.7685 47.8302 44.1726 48.0178 44.6014 48.0355C45.0301 48.0531 45.4483 47.8995 45.764 47.6084C46.0796 47.3172 46.2669 46.9124 46.2846 46.483C46.3022 46.0536 46.1488 45.6347 45.8582 45.3186L38.6828 37.583C38.5397 37.4211 38.3656 37.2896 38.1707 37.1964C37.9759 37.1032 37.7643 37.0503 37.5486 37.0407C37.3329 37.0311 37.1175 37.065 36.9152 37.1405C36.7128 37.216 36.5277 37.3315 36.3709 37.4801V37.4801Z" fill="#3E214F"/>
<path d="M37.2239 17.2745C36.9882 17.4928 36.823 17.7768 36.7496 18.0898C36.6762 18.4029 36.698 18.7309 36.8122 19.0314C36.9264 19.332 37.1277 19.5916 37.3902 19.7767C37.6528 19.9618 37.9646 20.064 38.2857 20.0702C39.2973 20.1192 40.2485 20.5668 40.9318 21.3155C41.6152 22.0642 41.9752 23.0532 41.9333 24.0667C41.9254 24.2784 41.9593 24.4896 42.0329 24.6882C42.1065 24.8869 42.2185 25.069 42.3624 25.2243C42.5063 25.3796 42.6794 25.505 42.8717 25.5933C43.0639 25.6816 43.2717 25.7311 43.4831 25.739C43.6945 25.7469 43.9054 25.713 44.1037 25.6392C44.302 25.5655 44.4839 25.4533 44.6389 25.3092C44.794 25.1651 44.9192 24.9918 45.0073 24.7992C45.0955 24.6066 45.1449 24.3985 45.1528 24.1867C45.2112 23.2402 45.0775 22.2917 44.7596 21.3984C44.4417 20.5052 43.9463 19.6857 43.3033 18.9897C42.0323 17.6181 40.2722 16.8044 38.4055 16.7256C37.9549 16.7455 37.5302 16.9428 37.2239 17.2745Z" fill="#3E214F"/>
<path d="M37.3997 10.5341C37.1926 10.7637 37.0558 11.048 37.0057 11.3533C36.9556 11.6586 36.9942 11.9719 37.117 12.2558C37.2397 12.5396 37.4415 12.7822 37.6981 12.9544C37.9547 13.1266 38.2553 13.2212 38.5642 13.227C39.9581 13.2843 41.3271 13.6166 42.5926 14.205C43.858 14.7933 44.9951 15.626 45.9385 16.6554C46.882 17.6848 47.6132 18.8906 48.0904 20.2037C48.5676 21.5167 48.7813 22.9112 48.7193 24.3072C48.6954 24.7511 48.8445 25.1871 49.1352 25.523C49.4259 25.859 49.8355 26.0688 50.2777 26.1082C50.7319 26.1082 51.1675 25.9275 51.4886 25.6058C51.8098 25.2841 51.9902 24.8479 51.9902 24.393C52.0658 22.5716 51.7811 20.7532 51.1523 19.0424C50.5235 17.3317 49.5631 15.7624 48.3264 14.4249C47.0897 13.0874 45.6011 12.0081 43.9462 11.2491C42.2914 10.4901 40.503 10.0664 38.684 10.0024C38.4439 9.98929 38.2039 10.0303 37.9816 10.1223C37.7594 10.2143 37.5605 10.355 37.3997 10.5341V10.5341Z" fill="#3E214F"/>
<path d="M34.397 25.0279C34.2407 25.1721 34.1142 25.3457 34.0249 25.5388C33.9356 25.7319 33.8851 25.9407 33.8764 26.1533C33.8676 26.3659 33.9008 26.5782 33.9739 26.778C34.0471 26.9778 34.1588 27.1612 34.3028 27.3177C34.4467 27.4743 34.62 27.6009 34.8128 27.6904C35.0056 27.7798 35.2141 27.8304 35.4264 27.8391C35.6386 27.8479 35.8506 27.8147 36.0501 27.7414C36.2495 27.6681 36.4327 27.5562 36.589 27.4121L37.8733 26.2286C38.189 25.9375 38.3762 25.5326 38.3939 25.1032C38.4116 24.6738 38.2582 24.2549 37.9675 23.9388C37.6768 23.6226 37.2727 23.4351 36.8439 23.4174C36.4152 23.3997 35.997 23.5533 35.6813 23.8445L34.397 25.0279Z" fill="#3E214F"/>
</svg>
