<svg width="51" height="51" viewBox="0 0 51 51" fill="none" xmlns="http://www.w3.org/2000/svg">
<path d="M25.5 8.5H10.625C8.93424 8.5 7.31274 9.17165 6.11719 10.3672C4.92165 11.5627 4.25 13.1842 4.25 14.875V31.875C4.25 33.5658 4.92165 35.1873 6.11719 36.3828C7.31274 37.5784 8.93424 38.25 10.625 38.25L8.5 40.375V42.5H10.625L14.875 38.1862L19.125 38.25V27.625H8.5V12.75H27.625V17H31.875V14.875C31.875 13.1842 31.2034 11.5627 30.0078 10.3672C28.8123 9.17165 27.1908 8.5 25.5 8.5ZM10.625 29.75C11.1886 29.75 11.7291 29.9739 12.1276 30.3724C12.5261 30.7709 12.75 31.3114 12.75 31.875C12.75 32.4386 12.5261 32.9791 12.1276 33.3776C11.7291 33.7761 11.1886 34 10.625 34C10.0614 34 9.52091 33.7761 9.1224 33.3776C8.72388 32.9791 8.5 32.4386 8.5 31.875C8.5 31.3114 8.72388 30.7709 9.1224 30.3724C9.52091 29.9739 10.0614 29.75 10.625 29.75ZM43.7112 20.5275C43.4137 19.6775 42.6063 19.125 41.65 19.125H26.3712C25.3937 19.125 24.6075 19.6775 24.2888 20.5275L21.25 29.2613V40.97C21.25 41.7775 21.93 42.5 22.7375 42.5H24.055C24.8625 42.5 25.5 41.6925 25.5 40.885V38.25H42.5V40.885C42.5 41.6925 43.1588 42.5 43.9663 42.5H45.2625C46.07 42.5 46.75 41.7775 46.75 40.97V29.2613L43.7112 20.5275ZM26.3712 21.25H41.65L43.8387 27.625H24.1825L26.3712 21.25ZM25.5 34C24.9364 34 24.3959 33.7761 23.9974 33.3776C23.5989 32.9791 23.375 32.4386 23.375 31.875C23.375 31.3114 23.5989 30.7709 23.9974 30.3724C24.3959 29.9739 24.9364 29.75 25.5 29.75C26.0636 29.75 26.6041 29.9739 27.0026 30.3724C27.4011 30.7709 27.625 31.3114 27.625 31.875C27.625 32.4386 27.4011 32.9791 27.0026 33.3776C26.6041 33.7761 26.0636 34 25.5 34ZM42.5 34C41.9364 34 41.3959 33.7761 40.9974 33.3776C40.5989 32.9791 40.375 32.4386 40.375 31.875C40.375 31.3114 40.5989 30.7709 40.9974 30.3724C41.3959 29.9739 41.9364 29.75 42.5 29.75C43.0636 29.75 43.6041 29.9739 44.0026 30.3724C44.4011 30.7709 44.625 31.3114 44.625 31.875C44.625 32.4386 44.4011 32.9791 44.0026 33.3776C43.6041 33.7761 43.0636 34 42.5 34Z" fill="#3E214F"/>
</svg>
