<svg width="48" height="48" viewBox="0 0 48 48" fill="none" xmlns="http://www.w3.org/2000/svg">
<path d="M16 12V8C16 6.9 16.392 5.958 17.176 5.174C17.96 4.39 18.9013 3.99867 20 4H28C29.1 4 30.042 4.392 30.826 5.176C31.61 5.96 32.0013 6.90134 32 8V12H40C41.1 12 42.042 12.392 42.826 13.176C43.61 13.96 44.0013 14.9013 44 16V26H30V22H18V26H4V16C4 14.9 4.392 13.958 5.176 13.174C5.96 12.39 6.90134 11.9987 8 12H16ZM20 12H28V8H20V12ZM22 30V26H26V30H22ZM4 30H18V34H30V30H44V38C44 39.1 43.608 40.042 42.824 40.826C42.04 41.61 41.0987 42.0013 40 42H8C6.9 42 5.958 41.608 5.174 40.824C4.39 40.04 3.99867 39.0987 4 38V30Z" fill="#3E214F"/>
</svg>
