<svg width="47" height="47" viewBox="0 0 47 47" fill="none" xmlns="http://www.w3.org/2000/svg">
<g clip-path="url(#clip0_879_8660)">
<path d="M23.5 0C25.6572 0 27.738 0.275391 29.7422 0.826172C31.7464 1.37695 33.6206 2.16488 35.3647 3.18994C37.1089 4.21501 38.6924 5.43896 40.1152 6.86182C41.5381 8.28467 42.762 9.87581 43.7871 11.6353C44.8122 13.3947 45.6001 15.2689 46.1509 17.2578C46.7017 19.2467 46.9847 21.3275 47 23.5C47 25.6572 46.7246 27.738 46.1738 29.7422C45.623 31.7464 44.8351 33.6206 43.8101 35.3647C42.785 37.1089 41.561 38.6924 40.1382 40.1152C38.7153 41.5381 37.1242 42.762 35.3647 43.7871C33.6053 44.8122 31.7311 45.6001 29.7422 46.1509C27.7533 46.7017 25.6725 46.9847 23.5 47C21.3428 47 19.262 46.7246 17.2578 46.1738C15.2536 45.623 13.3794 44.8351 11.6353 43.8101C9.89111 42.785 8.30762 41.561 6.88477 40.1382C5.46191 38.7153 4.23796 37.1242 3.21289 35.3647C2.18783 33.6053 1.3999 31.7388 0.849121 29.7651C0.29834 27.7915 0.0152995 25.7031 0 23.5C0 21.3428 0.275391 19.262 0.826172 17.2578C1.37695 15.2536 2.16488 13.3794 3.18994 11.6353C4.21501 9.89111 5.43896 8.30762 6.86182 6.88477C8.28467 5.46191 9.87581 4.23796 11.6353 3.21289C13.3947 2.18783 15.2612 1.3999 17.2349 0.849121C19.2085 0.29834 21.2969 0.0152995 23.5 0ZM23.5 44.0625C25.3818 44.0625 27.1948 43.8177 28.939 43.3281C30.6831 42.8385 32.3201 42.1501 33.8501 41.2627C35.38 40.3753 36.7723 39.2967 38.0269 38.0269C39.2814 36.757 40.3524 35.3724 41.2397 33.873C42.1271 32.3737 42.8232 30.7367 43.3281 28.9619C43.833 27.1872 44.0778 25.3665 44.0625 23.5C44.0625 21.6182 43.8177 19.8052 43.3281 18.061C42.8385 16.3169 42.1501 14.6799 41.2627 13.1499C40.3753 11.62 39.2967 10.2277 38.0269 8.97314C36.757 7.71859 35.3724 6.64762 33.873 5.76025C32.3737 4.87288 30.7367 4.17676 28.9619 3.67188C27.1872 3.16699 25.3665 2.9222 23.5 2.9375C21.6182 2.9375 19.8052 3.18229 18.061 3.67188C16.3169 4.16146 14.6799 4.84993 13.1499 5.7373C11.62 6.62467 10.2277 7.70329 8.97314 8.97314C7.71859 10.243 6.64762 11.6276 5.76025 13.127C4.87288 14.6263 4.17676 16.2633 3.67188 18.0381C3.16699 19.8128 2.9222 21.6335 2.9375 23.5C2.9375 25.3818 3.18229 27.1948 3.67188 28.939C4.16146 30.6831 4.84993 32.3201 5.7373 33.8501C6.62467 35.38 7.70329 36.7723 8.97314 38.0269C10.243 39.2814 11.6276 40.3524 13.127 41.2397C14.6263 42.1271 16.2633 42.8232 18.0381 43.3281C19.8128 43.833 21.6335 44.0778 23.5 44.0625ZM37.2007 23.8672L38.3022 20.5625H40.0234L38.0728 26.4375H36.3516L35.25 23.1328L34.1484 26.4375H32.4272L30.4766 20.5625H32.1978L33.2993 23.8672L34.4009 20.5625H36.0991L37.2007 23.8672ZM26.5522 20.5625H28.2734L26.3228 26.4375H24.6016L23.5 23.1328L22.3984 26.4375H20.6772L18.7266 20.5625H20.4478L21.5493 23.8672L22.6509 20.5625H24.3491L25.4507 23.8672L26.5522 20.5625ZM14.8022 20.5625H16.5234L14.5728 26.4375H12.8516L11.75 23.1328L10.6484 26.4375H8.92725L6.97656 20.5625H8.69775L9.79932 23.8672L10.9009 20.5625H12.5991L13.7007 23.8672L14.8022 20.5625Z" fill="#3E214F"/>
</g>
<defs>
<clipPath id="clip0_879_8660">
<rect width="47" height="47" fill="white"/>
</clipPath>
</defs>
</svg>
