<svg width="46" height="46" viewBox="0 0 46 46" fill="none" xmlns="http://www.w3.org/2000/svg">
<path d="M8.81363 5.87506C9.21829 5.38623 9.72584 4.99272 10.3001 4.72263C10.8743 4.45253 11.5011 4.31249 12.1357 4.3125H33.8693C34.5041 4.31228 35.1311 4.45221 35.7056 4.72232C36.2802 4.99243 36.7879 5.38604 37.1928 5.87506L43.8987 13.9797C45.4498 15.8542 44.1158 18.6875 41.6835 18.6875H4.32144C1.88919 18.6875 0.555193 15.8542 2.10769 13.9797L8.81363 5.87506ZM5.75175 21.5625V37.0156C5.75175 38.2547 6.24397 39.443 7.12012 40.3191C7.99626 41.1953 9.18457 41.6875 10.4236 41.6875H35.5799C36.1934 41.6875 36.8009 41.5667 37.3677 41.3319C37.9345 41.0971 38.4496 40.753 38.8834 40.3191C39.3172 39.8853 39.6613 39.3703 39.8961 38.8035C40.1309 38.2367 40.2518 37.6291 40.2518 37.0156V21.5625H5.75175ZM17.2518 28.75C17.2518 29.5125 16.9489 30.2438 16.4097 30.7829C15.8705 31.3221 15.1393 31.625 14.3768 31.625C13.6143 31.625 12.883 31.3221 12.3438 30.7829C11.8047 30.2438 11.5018 29.5125 11.5018 28.75C11.5018 27.9875 11.8047 27.2562 12.3438 26.7171C12.883 26.1779 13.6143 25.875 14.3768 25.875C15.1393 25.875 15.8705 26.1779 16.4097 26.7171C16.9489 27.2562 17.2518 27.9875 17.2518 28.75ZM23.0018 31.625C22.2393 31.625 21.508 31.3221 20.9688 30.7829C20.4297 30.2438 20.1268 29.5125 20.1268 28.75C20.1268 27.9875 20.4297 27.2562 20.9688 26.7171C21.508 26.1779 22.2393 25.875 23.0018 25.875C23.7643 25.875 24.4955 26.1779 25.0347 26.7171C25.5739 27.2562 25.8768 27.9875 25.8768 28.75C25.8768 29.5125 25.5739 30.2438 25.0347 30.7829C24.4955 31.3221 23.7643 31.625 23.0018 31.625ZM34.5018 28.75C34.5018 29.5125 34.1989 30.2438 33.6597 30.7829C33.1205 31.3221 32.3893 31.625 31.6268 31.625C30.8643 31.625 30.133 31.3221 29.5938 30.7829C29.0547 30.2438 28.7518 29.5125 28.7518 28.75C28.7518 27.9875 29.0547 27.2562 29.5938 26.7171C30.133 26.1779 30.8643 25.875 31.6268 25.875C32.3893 25.875 33.1205 26.1779 33.6597 26.7171C34.1989 27.2562 34.5018 27.9875 34.5018 28.75Z" fill="#3E214F"/>
</svg>
