<svg width="506" height="506" viewBox="0 0 506 506" fill="none" xmlns="http://www.w3.org/2000/svg">
<path d="M274.083 442.75V400.583H316.25V442.75H274.083ZM231.917 400.583V295.167H274.083V400.583H231.917ZM400.583 337.333V253H442.75V337.333H400.583ZM358.417 253V210.833H400.583V253H358.417ZM105.417 295.167V253H147.583V295.167H105.417ZM63.25 253V210.833H105.417V253H63.25ZM253 105.417V63.25H295.167V105.417H253ZM94.875 158.125H158.125V94.875H94.875V158.125ZM63.25 189.75V63.25H189.75V189.75H63.25ZM94.875 411.125H158.125V347.875H94.875V411.125ZM63.25 442.75V316.25H189.75V442.75H63.25ZM347.875 158.125H411.125V94.875H347.875V158.125ZM316.25 189.75V63.25H442.75V189.75H316.25ZM358.417 442.75V379.5H316.25V337.333H400.583V400.583H442.75V442.75H358.417ZM274.083 295.167V253H358.417V295.167H274.083ZM189.75 295.167V253H147.583V210.833H274.083V253H231.917V295.167H189.75ZM210.833 189.75V105.417H253V147.583H295.167V189.75H210.833ZM110.688 142.313V110.688H142.313V142.313H110.688ZM110.688 395.313V363.688H142.313V395.313H110.688ZM363.688 142.313V110.688H395.313V142.313H363.688Z" fill="white"/>
</svg>
