<svg width="22" height="22" viewBox="0 0 22 22" fill="none" xmlns="http://www.w3.org/2000/svg">
<path d="M20.5868 5.50033C19.881 5.82116 19.1202 6.03199 18.3318 6.13283C19.1385 5.64699 19.7618 4.87699 20.0552 3.95116C19.2943 4.40949 18.451 4.73033 17.5618 4.91366C16.8377 4.12533 15.8202 3.66699 14.6652 3.66699C12.511 3.66699 10.751 5.42699 10.751 7.59949C10.751 7.91116 10.7877 8.21366 10.8518 8.49783C7.58849 8.33283 4.68266 6.76533 2.74849 4.39116C2.40932 4.96866 2.21682 5.64699 2.21682 6.36199C2.21682 7.72783 2.90432 8.93783 3.96766 9.62533C3.31682 9.62533 2.71182 9.44199 2.18016 9.16699V9.19449C2.18016 11.1012 3.53682 12.6962 5.33349 13.0537C4.75666 13.2115 4.15108 13.2335 3.56432 13.1178C3.8133 13.8993 4.3009 14.583 4.95859 15.073C5.61628 15.563 6.41098 15.8345 7.23099 15.8495C5.84098 16.9499 4.11799 17.5447 2.34516 17.5362C2.03349 17.5362 1.72182 17.5178 1.41016 17.4812C3.15182 18.5995 5.22349 19.2503 7.44182 19.2503C14.6652 19.2503 18.6343 13.2553 18.6343 8.05783C18.6343 7.88366 18.6343 7.71866 18.6252 7.54449C19.3952 6.99449 20.0552 6.29783 20.5868 5.50033Z" fill="white"/>
</svg>
