<svg width="60" height="60" viewBox="0 0 60 60" fill="none" xmlns="http://www.w3.org/2000/svg">
<path d="M36.47 7C32.7828 7 29.4401 8.90972 26.9974 12.0029C24.5599 8.90972 21.2172 7 17.53 7C10.0579 7 4 14.8319 4 24.4974C4 34.1629 10.0579 42 17.53 42C21.2172 42 24.5599 40.0903 26.9974 36.9971C29.4401 40.0903 32.7828 42 36.47 42C43.9421 42 50 34.168 50 24.4974C50 14.8268 43.9421 7 36.47 7Z" fill="white" stroke="#3E214F" stroke-width="1.5" stroke-linecap="round" stroke-linejoin="round"/>
<path d="M12 39C14.7614 39 17 35.866 17 32C17 28.134 14.7614 25 12 25C9.23858 25 7 28.134 7 32C7 35.866 9.23858 39 12 39Z" fill="#3E214F" stroke="#3E214F" stroke-width="1.5" stroke-miterlimit="10"/>
<path d="M29.5 39C31.9853 39 34 35.866 34 32C34 28.134 31.9853 25 29.5 25C27.0147 25 25 28.134 25 32C25 35.866 27.0147 39 29.5 39Z" fill="#3E214F" stroke="#3E214F" stroke-width="1.5" stroke-miterlimit="10"/>
<path d="M51.0527 16H50.9473C48.215 16 46 18.1176 46 20.7299V30.2702C46 32.8824 48.215 35 50.9473 35H51.0527C53.785 35 56 32.8824 56 30.2702V20.7299C56 18.1176 53.785 16 51.0527 16Z" fill="#3E214F" stroke="#3E214F" stroke-width="1.5" stroke-miterlimit="10"/>
<path d="M19.8107 48H17.1893C15.9802 48 15 48.8846 15 49.9759V50.0241C15 51.1154 15.9802 52 17.1893 52H19.8107C21.0198 52 22 51.1154 22 50.0241V49.9759C22 48.8846 21.0198 48 19.8107 48Z" fill="#3E214F" stroke="#3E214F" stroke-width="1.5" stroke-miterlimit="10"/>
<path d="M18 50H36.9692C40.4252 50 43.7396 48.6444 46.1834 46.2314C48.6271 43.8184 50 40.5457 50 37.1332V30" stroke="#3E214F" stroke-width="1.5" stroke-miterlimit="10"/>
</svg>
