<svg width="214" height="42" viewBox="0 0 214 42" fill="none" xmlns="http://www.w3.org/2000/svg">
<path d="M21 42C32.5986 42 42 32.5986 42 21C42 9.40144 32.5986 0 21 0C9.40144 0 0 9.40144 0 21C0 32.5986 9.40144 42 21 42ZM19.4473 8.42756H22.0723V20.0904H33.7365V22.7154H19.4473V8.42756ZM11.6261 9.00112H14.2511V27.7476H32.9976V30.3726H11.6261V9.00112Z" fill="#E6767A"/>
<path d="M75.2542 9.05172H67.2065V30.6954H62.0219V9.05172H54V4.86782H75.2542V9.05172ZM83.1214 30.6954H78.169V15.5153C78.169 14.4425 78.1518 13.5396 78.1174 12.8065C78.1002 12.0734 78.0658 11.4298 78.0142 10.8755H82.7603C82.7947 11.09 82.8377 11.7605 82.8892 12.887C82.958 13.9955 82.9924 14.7375 82.9924 15.113H83.044C83.5255 13.7184 83.9554 12.735 84.3337 12.1628C84.712 11.5907 85.1591 11.1705 85.675 10.9023C86.1909 10.6162 86.8357 10.4732 87.6095 10.4732C88.2458 10.4732 88.7617 10.5715 89.1572 10.7682V15.0594C88.349 14.8806 87.6439 14.7912 87.0421 14.7912C85.804 14.7912 84.841 15.3097 84.1532 16.3467C83.4653 17.3838 83.1214 18.9215 83.1214 20.9598V30.6954ZM96.6374 31.0709C94.7803 31.0709 93.3358 30.5524 92.304 29.5153C91.2723 28.4604 90.7564 26.9853 90.7564 25.09C90.7564 23.0338 91.4013 21.4693 92.691 20.3966C93.9807 19.3238 95.8464 18.7784 98.2883 18.7605L102.389 18.6801V17.6609C102.389 16.3736 102.175 15.417 101.745 14.7912C101.315 14.1475 100.601 13.8257 99.6037 13.8257C98.6924 13.8257 98.0217 14.0492 97.5918 14.4962C97.1619 14.9253 96.8954 15.6405 96.7922 16.6418L91.6334 16.3736C91.9429 14.4425 92.7855 12.9853 94.1612 12.0019C95.5541 11.0006 97.437 10.5 99.8101 10.5C102.235 10.5 104.092 11.1169 105.382 12.3506C106.688 13.5843 107.342 15.3365 107.342 17.6073V24.8487C107.342 25.9572 107.462 26.7171 107.703 27.1284C107.944 27.5575 108.348 27.772 108.915 27.772C109.294 27.772 109.663 27.7363 110.025 27.6648V30.454C109.715 30.5255 109.448 30.5881 109.225 30.6418C108.984 30.7133 108.743 30.7669 108.503 30.8027C108.279 30.8384 108.03 30.8653 107.755 30.8831C107.497 30.9189 107.187 30.9368 106.826 30.9368C105.588 30.9368 104.668 30.6149 104.066 29.9713C103.481 29.3276 103.129 28.3889 103.009 27.1552H102.905C101.512 29.7656 99.4232 31.0709 96.6374 31.0709ZM102.389 22.5421V21.523L99.8617 21.5498C98.7096 21.6034 97.8927 21.7375 97.4113 21.9521C96.9298 22.1667 96.5601 22.4974 96.3021 22.9444C96.0442 23.3736 95.9152 23.9547 95.9152 24.6877C95.9152 25.6354 96.1302 26.3327 96.5601 26.7797C96.9728 27.2446 97.523 27.477 98.2109 27.477C98.9847 27.477 99.6983 27.2535 100.352 26.8065C100.988 26.3774 101.487 25.7695 101.848 24.9828C102.209 24.2139 102.389 23.4004 102.389 22.5421ZM120.265 31.0709C117.376 31.0709 115.14 30.1769 113.558 28.3889C111.976 26.6009 111.185 24.1066 111.185 20.9061C111.185 17.6162 111.985 15.0594 113.584 13.2356C115.166 11.4119 117.41 10.5 120.316 10.5C122.569 10.5 124.426 11.09 125.888 12.2701C127.367 13.4323 128.295 15.0504 128.674 17.1245L123.67 17.3659C123.532 16.3646 123.179 15.56 122.612 14.9521C122.044 14.3442 121.245 14.0402 120.213 14.0402C117.668 14.0402 116.396 16.2573 116.396 20.6916C116.396 25.2688 117.694 27.5575 120.291 27.5575C121.236 27.5575 122.027 27.2446 122.664 26.6188C123.3 26.0109 123.687 25.09 123.824 23.8563L128.803 24.0977C128.631 25.4566 128.166 26.6724 127.41 27.7452C126.653 28.8001 125.656 29.6226 124.418 30.2126C123.179 30.7848 121.795 31.0709 120.265 31.0709ZM149.979 30.6954H144.563L139.481 21.7107L137.34 23.2663V30.6954H132.388V3.5H137.34V19.0824L144.15 10.8755H149.463L142.783 18.5996L149.979 30.6954ZM172.807 13.0479C172.807 14.7107 172.437 16.1948 171.698 17.5C170.976 18.8052 169.935 19.8155 168.577 20.5307C167.218 21.2459 165.602 21.6034 163.728 21.6034H157.563V30.6954H152.352V4.86782H163.521C166.496 4.86782 168.783 5.58301 170.382 7.01341C171.999 8.42593 172.807 10.4374 172.807 13.0479ZM167.571 13.1552C167.571 10.4374 166.032 9.07854 162.954 9.07854H157.563V17.4464H163.083C164.527 17.4464 165.636 17.0798 166.41 16.3467C167.184 15.5958 167.571 14.5319 167.571 13.1552ZM180.958 31.0709C179.118 31.0709 177.682 30.5524 176.65 29.5153C175.619 28.4604 175.103 26.9853 175.103 25.09C175.103 23.0338 175.739 21.4693 177.011 20.3966C178.301 19.3238 180.176 18.7784 182.635 18.7605L186.736 18.6801V17.6609C186.736 16.3736 186.521 15.417 186.091 14.7912C185.644 14.1475 184.93 13.8257 183.95 13.8257C183.021 13.8257 182.351 14.0492 181.938 14.4962C181.508 14.9253 181.233 15.6405 181.113 16.6418L175.954 16.3736C176.281 14.4425 177.132 12.9853 178.508 12.0019C179.883 11.0006 181.766 10.5 184.156 10.5C186.564 10.5 188.421 11.1169 189.728 12.3506C191.035 13.5843 191.688 15.3365 191.688 17.6073V24.8487C191.688 25.9572 191.809 26.7171 192.049 27.1284C192.29 27.5575 192.694 27.772 193.262 27.772C193.64 27.772 194.001 27.7363 194.345 27.6648V30.454C194.053 30.5255 193.786 30.5881 193.545 30.6418C193.322 30.7133 193.09 30.7669 192.849 30.8027C192.608 30.8384 192.359 30.8653 192.101 30.8831C191.843 30.9189 191.533 30.9368 191.172 30.9368C189.934 30.9368 189.014 30.6149 188.412 29.9713C187.828 29.3276 187.475 28.3889 187.355 27.1552H187.252C185.859 29.7656 183.761 31.0709 180.958 31.0709ZM186.736 22.5421V21.523L184.182 21.5498C183.03 21.6034 182.213 21.7375 181.732 21.9521C181.25 22.1667 180.889 22.4974 180.648 22.9444C180.39 23.3736 180.261 23.9547 180.261 24.6877C180.261 25.6354 180.468 26.3327 180.881 26.7797C181.293 27.2446 181.852 27.477 182.557 27.477C183.331 27.477 184.036 27.2535 184.672 26.8065C185.309 26.3774 185.816 25.7695 186.194 24.9828C186.555 24.2139 186.736 23.4004 186.736 22.5421ZM199.117 38.5C197.93 38.5 196.89 38.4195 195.996 38.2586V34.5843C196.615 34.6916 197.182 34.7452 197.698 34.7452C198.403 34.7452 198.988 34.629 199.452 34.3966C199.916 34.1641 200.338 33.7797 200.716 33.2433C201.077 32.7069 201.49 31.795 201.954 30.5077L194.397 10.8755H199.633L202.625 20.1552C203.106 21.4962 203.7 23.5434 204.405 26.2969L204.869 24.5536L206.004 20.2356L208.815 10.8755H214L206.468 31.7414C205.454 34.2982 204.405 36.0594 203.321 37.0249C202.238 38.0083 200.836 38.5 199.117 38.5Z" fill="#3E214F"/>
</svg>
