<svg width="400" height="18" viewBox="0 0 400 18" fill="none" xmlns="http://www.w3.org/2000/svg">
<line y1="8.5" x2="179" y2="8.5" stroke="#D8D8D8"/>
<path d="M195.146 15.168C194.39 15.168 193.685 15.0327 193.032 14.762C192.388 14.4913 191.819 14.1133 191.324 13.628C190.839 13.1427 190.456 12.5733 190.176 11.92C189.905 11.2667 189.77 10.5527 189.77 9.778C189.77 9.00333 189.905 8.28933 190.176 7.636C190.456 6.97333 190.839 6.404 191.324 5.928C191.809 5.44267 192.379 5.06933 193.032 4.808C193.685 4.53733 194.39 4.402 195.146 4.402C195.911 4.402 196.616 4.53733 197.26 4.808C197.913 5.06933 198.483 5.44267 198.968 5.928C199.463 6.41333 199.845 6.98267 200.116 7.636C200.387 8.28933 200.522 9.00333 200.522 9.778C200.522 10.5527 200.382 11.2667 200.102 11.92C199.831 12.5733 199.453 13.1427 198.968 13.628C198.483 14.1133 197.913 14.4913 197.26 14.762C196.607 15.0327 195.902 15.168 195.146 15.168ZM195.146 13.656C195.687 13.656 196.182 13.558 196.63 13.362C197.087 13.166 197.484 12.8953 197.82 12.55C198.156 12.1953 198.417 11.7847 198.604 11.318C198.791 10.842 198.884 10.3287 198.884 9.778C198.884 9.22733 198.791 8.71867 198.604 8.252C198.417 7.78533 198.156 7.37467 197.82 7.02C197.484 6.66533 197.087 6.39 196.63 6.194C196.182 5.998 195.687 5.9 195.146 5.9C194.605 5.9 194.105 5.998 193.648 6.194C193.2 6.39 192.808 6.66533 192.472 7.02C192.136 7.37467 191.875 7.78533 191.688 8.252C191.511 8.71867 191.422 9.22733 191.422 9.778C191.422 10.3287 191.511 10.842 191.688 11.318C191.875 11.7847 192.136 12.1953 192.472 12.55C192.808 12.8953 193.205 13.166 193.662 13.362C194.119 13.558 194.614 13.656 195.146 13.656ZM202.369 15V4.57H206.163C206.863 4.57 207.479 4.70067 208.011 4.962C208.543 5.214 208.958 5.58733 209.257 6.082C209.565 6.56733 209.719 7.15067 209.719 7.832C209.719 8.55067 209.537 9.16667 209.173 9.68C208.818 10.1933 208.338 10.5667 207.731 10.8L210.139 15H208.263L205.701 10.45L206.779 11.08H204.021V15H202.369ZM204.021 9.61H206.191C206.574 9.61 206.905 9.53533 207.185 9.386C207.465 9.23667 207.68 9.03133 207.829 8.77C207.988 8.49933 208.067 8.182 208.067 7.818C208.067 7.454 207.988 7.14133 207.829 6.88C207.68 6.60933 207.465 6.404 207.185 6.264C206.905 6.11467 206.574 6.04 206.191 6.04H204.021V9.61Z" fill="#8B8B8B"/>
<line x1="221" y1="8.5" x2="400" y2="8.5" stroke="#D8D8D8"/>
</svg>
